<?xml version="1.0" encoding="UTF-8"?>
<!--Generator: Apple Native CoreSVG 129-->
<!DOCTYPE svg
PUBLIC "-//W3C//DTD SVG 1.1//EN"
       "http://www.w3.org/Graphics/SVG/1.1/DTD/svg11.dtd">
<svg version="1.1" xmlns="http://www.w3.org/2000/svg" xmlns:xlink="http://www.w3.org/1999/xlink" width="3300" height="2200">
 <!--glyph: "uni1004DB.medium", point size: 100.000000, font version: "Version 16.0d9e1", template writer version: "8"-->
 <g id="Notes">
  <rect height="2200" id="artboard" style="fill:white;opacity:1" width="3300" x="0" y="0"/>
  <line id="" style="fill:none;stroke:black;opacity:1;stroke-width:0.5;" x1="263" x2="3036" y1="292" y2="292"/>
  <text style="stroke:none;fill:black;font-family:-apple-system,&quot;SF Pro Display&quot;,&quot;SF Pro Text&quot;,Helvetica,sans-serif;font-weight:bold;" transform="matrix(1 0 0 1 263 322)">Weight/Scale Variations</text>
  <text style="stroke:none;fill:black;font-family:-apple-system,&quot;SF Pro Display&quot;,&quot;SF Pro Text&quot;,Helvetica,sans-serif;text-anchor:middle;" transform="matrix(1 0 0 1 559.711 322)">Ultralight</text>
  <text style="stroke:none;fill:black;font-family:-apple-system,&quot;SF Pro Display&quot;,&quot;SF Pro Text&quot;,Helvetica,sans-serif;text-anchor:middle;" transform="matrix(1 0 0 1 856.422 322)">Thin</text>
  <text style="stroke:none;fill:black;font-family:-apple-system,&quot;SF Pro Display&quot;,&quot;SF Pro Text&quot;,Helvetica,sans-serif;text-anchor:middle;" transform="matrix(1 0 0 1 1153.13 322)">Light</text>
  <text style="stroke:none;fill:black;font-family:-apple-system,&quot;SF Pro Display&quot;,&quot;SF Pro Text&quot;,Helvetica,sans-serif;text-anchor:middle;" transform="matrix(1 0 0 1 1449.84 322)">Regular</text>
  <text style="stroke:none;fill:black;font-family:-apple-system,&quot;SF Pro Display&quot;,&quot;SF Pro Text&quot;,Helvetica,sans-serif;text-anchor:middle;" transform="matrix(1 0 0 1 1746.56 322)">Medium</text>
  <text style="stroke:none;fill:black;font-family:-apple-system,&quot;SF Pro Display&quot;,&quot;SF Pro Text&quot;,Helvetica,sans-serif;text-anchor:middle;" transform="matrix(1 0 0 1 2043.27 322)">Semibold</text>
  <text style="stroke:none;fill:black;font-family:-apple-system,&quot;SF Pro Display&quot;,&quot;SF Pro Text&quot;,Helvetica,sans-serif;text-anchor:middle;" transform="matrix(1 0 0 1 2339.98 322)">Bold</text>
  <text style="stroke:none;fill:black;font-family:-apple-system,&quot;SF Pro Display&quot;,&quot;SF Pro Text&quot;,Helvetica,sans-serif;text-anchor:middle;" transform="matrix(1 0 0 1 2636.69 322)">Heavy</text>
  <text style="stroke:none;fill:black;font-family:-apple-system,&quot;SF Pro Display&quot;,&quot;SF Pro Text&quot;,Helvetica,sans-serif;text-anchor:middle;" transform="matrix(1 0 0 1 2933.4 322)">Black</text>
  <line id="" style="fill:none;stroke:black;opacity:1;stroke-width:0.5;" x1="263" x2="3036" y1="1903" y2="1903"/>
  <g id="" transform="matrix(1 0 0 1 263 1933)">
   <path d="M 9.24805 0.830078 C 13.5547 0.830078 17.1387 -2.74414 17.1387 -7.05078 C 17.1387 -11.3574 13.5449 -14.9316 9.23828 -14.9316 C 4.94141 -14.9316 1.36719 -11.3574 1.36719 -7.05078 C 1.36719 -2.74414 4.95117 0.830078 9.24805 0.830078 Z M 9.24805 -0.654297 C 5.70312 -0.654297 2.87109 -3.49609 2.87109 -7.05078 C 2.87109 -10.6055 5.69336 -13.4473 9.23828 -13.4473 C 12.793 -13.4473 15.6348 -10.6055 15.6445 -7.05078 C 15.6543 -3.49609 12.8027 -0.654297 9.24805 -0.654297 Z M 9.22852 -3.62305 C 9.69727 -3.62305 9.9707 -3.93555 9.9707 -4.45312 L 9.9707 -6.31836 L 12.002 -6.31836 C 12.5 -6.31836 12.832 -6.57227 12.832 -7.04102 C 12.832 -7.51953 12.5195 -7.7832 12.002 -7.7832 L 9.9707 -7.7832 L 9.9707 -9.81445 C 9.9707 -10.332 9.69727 -10.6543 9.22852 -10.6543 C 8.75977 -10.6543 8.50586 -10.3125 8.50586 -9.81445 L 8.50586 -7.7832 L 6.49414 -7.7832 C 5.97656 -7.7832 5.64453 -7.51953 5.64453 -7.04102 C 5.64453 -6.57227 5.99609 -6.31836 6.49414 -6.31836 L 8.50586 -6.31836 L 8.50586 -4.45312 C 8.50586 -3.95508 8.75977 -3.62305 9.22852 -3.62305 Z"/>
  </g>
  <g id="" transform="matrix(1 0 0 1 281.506 1933)">
   <path d="M 11.709 2.91016 C 17.1582 2.91016 21.6699 -1.61133 21.6699 -7.05078 C 21.6699 -12.5 17.1484 -17.0117 11.6992 -17.0117 C 6.25977 -17.0117 1.74805 -12.5 1.74805 -7.05078 C 1.74805 -1.61133 6.26953 2.91016 11.709 2.91016 Z M 11.709 1.25 C 7.09961 1.25 3.41797 -2.44141 3.41797 -7.05078 C 3.41797 -11.6602 7.08984 -15.3516 11.6992 -15.3516 C 16.3086 -15.3516 20 -11.6602 20.0098 -7.05078 C 20.0195 -2.44141 16.3184 1.25 11.709 1.25 Z M 11.6797 -2.66602 C 12.207 -2.66602 12.5098 -3.01758 12.5098 -3.59375 L 12.5098 -6.23047 L 15.3223 -6.23047 C 15.8691 -6.23047 16.25 -6.51367 16.25 -7.03125 C 16.25 -7.55859 15.8887 -7.86133 15.3223 -7.86133 L 12.5098 -7.86133 L 12.5098 -10.6836 C 12.5098 -11.25 12.207 -11.6113 11.6797 -11.6113 C 11.1621 -11.6113 10.8789 -11.2305 10.8789 -10.6836 L 10.8789 -7.86133 L 8.07617 -7.86133 C 7.50977 -7.86133 7.13867 -7.55859 7.13867 -7.03125 C 7.13867 -6.51367 7.5293 -6.23047 8.07617 -6.23047 L 10.8789 -6.23047 L 10.8789 -3.59375 C 10.8789 -3.03711 11.1621 -2.66602 11.6797 -2.66602 Z"/>
  </g>
  <g id="" transform="matrix(1 0 0 1 304.924 1933)">
   <path d="M 14.9707 5.66406 C 21.9336 5.66406 27.6953 -0.0976562 27.6953 -7.05078 C 27.6953 -14.0137 21.9238 -19.7754 14.9609 -19.7754 C 8.00781 -19.7754 2.25586 -14.0137 2.25586 -7.05078 C 2.25586 -0.0976562 8.01758 5.66406 14.9707 5.66406 Z M 14.9707 3.84766 C 8.93555 3.84766 4.08203 -1.01562 4.08203 -7.05078 C 4.08203 -13.0957 8.92578 -17.9492 14.9609 -17.9492 C 21.0059 -17.9492 25.8594 -13.0957 25.8691 -7.05078 C 25.8789 -1.01562 21.0156 3.84766 14.9707 3.84766 Z M 14.9414 -1.38672 C 15.5176 -1.38672 15.8594 -1.77734 15.8594 -2.38281 L 15.8594 -6.13281 L 19.7754 -6.13281 C 20.3711 -6.13281 20.7812 -6.46484 20.7812 -7.02148 C 20.7812 -7.59766 20.3906 -7.93945 19.7754 -7.93945 L 15.8594 -7.93945 L 15.8594 -11.8652 C 15.8594 -12.4805 15.5176 -12.8711 14.9414 -12.8711 C 14.375 -12.8711 14.0527 -12.4609 14.0527 -11.8652 L 14.0527 -7.93945 L 10.1465 -7.93945 C 9.53125 -7.93945 9.13086 -7.59766 9.13086 -7.02148 C 9.13086 -6.46484 9.55078 -6.13281 10.1465 -6.13281 L 14.0527 -6.13281 L 14.0527 -2.38281 C 14.0527 -1.79688 14.375 -1.38672 14.9414 -1.38672 Z"/>
  </g>
  <text style="stroke:none;fill:black;font-family:-apple-system,&quot;SF Pro Display&quot;,&quot;SF Pro Text&quot;,Helvetica,sans-serif;font-weight:bold;" transform="matrix(1 0 0 1 263 1953)">Design Variations</text>
  <text style="stroke:none;fill:black;font-family:-apple-system,&quot;SF Pro Display&quot;,&quot;SF Pro Text&quot;,Helvetica,sans-serif;" transform="matrix(1 0 0 1 263 1971)">Symbols are supported in up to nine weights and three scales.</text>
  <text style="stroke:none;fill:black;font-family:-apple-system,&quot;SF Pro Display&quot;,&quot;SF Pro Text&quot;,Helvetica,sans-serif;" transform="matrix(1 0 0 1 263 1989)">For optimal layout with text and other symbols, vertically align</text>
  <text style="stroke:none;fill:black;font-family:-apple-system,&quot;SF Pro Display&quot;,&quot;SF Pro Text&quot;,Helvetica,sans-serif;" transform="matrix(1 0 0 1 263 2007)">symbols with the adjacent text.</text>
  <line id="" style="fill:none;stroke:#00AEEF;stroke-width:0.5;opacity:1.0;" x1="776" x2="776" y1="1919" y2="1933"/>
  <g id="" transform="matrix(1 0 0 1 776 1933)">
   <path d="M 3.31055 0.126953 C 3.82812 0.126953 4.08203 -0.0683594 4.26758 -0.605469 L 5.52734 -4.0625 L 11.2891 -4.0625 L 12.5488 -0.605469 C 12.7344 -0.0683594 12.9883 0.126953 13.4961 0.126953 C 14.0137 0.126953 14.3457 -0.185547 14.3457 -0.673828 C 14.3457 -0.839844 14.3164 -0.986328 14.2383 -1.20117 L 9.6582 -13.3887 C 9.43359 -13.9941 9.0332 -14.2871 8.4082 -14.2871 C 7.80273 -14.2871 7.39258 -13.9941 7.17773 -13.3984 L 2.59766 -1.19141 C 2.51953 -0.976562 2.49023 -0.830078 2.49023 -0.664062 C 2.49023 -0.175781 2.80273 0.126953 3.31055 0.126953 Z M 6.00586 -5.53711 L 8.37891 -12.1094 L 8.42773 -12.1094 L 10.8008 -5.53711 Z"/>
  </g>
  <line id="" style="fill:none;stroke:#00AEEF;stroke-width:0.5;opacity:1.0;" x1="792.836" x2="792.836" y1="1919" y2="1933"/>
  <text style="stroke:none;fill:black;font-family:-apple-system,&quot;SF Pro Display&quot;,&quot;SF Pro Text&quot;,Helvetica,sans-serif;font-weight:bold;" transform="matrix(1 0 0 1 776 1953)">Margins</text>
  <text style="stroke:none;fill:black;font-family:-apple-system,&quot;SF Pro Display&quot;,&quot;SF Pro Text&quot;,Helvetica,sans-serif;" transform="matrix(1 0 0 1 776 1971)">Leading and trailing margins on the left and right side of each symbol</text>
  <text style="stroke:none;fill:black;font-family:-apple-system,&quot;SF Pro Display&quot;,&quot;SF Pro Text&quot;,Helvetica,sans-serif;" transform="matrix(1 0 0 1 776 1989)">can be adjusted by modifying the x-location of the margin guidelines.</text>
  <text style="stroke:none;fill:black;font-family:-apple-system,&quot;SF Pro Display&quot;,&quot;SF Pro Text&quot;,Helvetica,sans-serif;" transform="matrix(1 0 0 1 776 2007)">Modifications are automatically applied proportionally to all</text>
  <text style="stroke:none;fill:black;font-family:-apple-system,&quot;SF Pro Display&quot;,&quot;SF Pro Text&quot;,Helvetica,sans-serif;" transform="matrix(1 0 0 1 776 2025)">scales and weights.</text>
  <g id="" transform="matrix(1 0 0 1 1289 1933)">
   <path d="M 2.8418 1.86523 L 4.54102 3.57422 C 5.40039 4.44336 6.38672 4.38477 7.31445 3.35938 L 17.4902 -7.85156 C 17.7539 -7.76367 18.0273 -7.7832 18.3398 -7.8418 L 19.4043 -8.03711 L 20.0684 -7.36328 L 20.0293 -6.80664 C 19.9902 -6.30859 20.1172 -5.92773 20.6055 -5.44922 L 21.3672 -4.70703 C 21.8457 -4.22852 22.4609 -4.19922 22.9297 -4.66797 L 25.8398 -7.58789 C 26.3086 -8.05664 26.2891 -8.65234 25.8105 -9.13086 L 25.0391 -9.89258 C 24.5605 -10.3711 24.1895 -10.5273 23.7109 -10.4883 L 23.1348 -10.4395 L 22.4902 -11.0742 L 22.7344 -12.1973 C 22.8613 -12.7637 22.7051 -13.2031 22.1191 -13.7891 L 19.9219 -15.9766 C 16.582 -19.2969 12.1484 -19.2188 9.25781 -16.3281 C 8.83789 -15.918 8.80859 -15.3418 9.04297 -14.9512 C 9.27734 -14.5898 9.73633 -14.3555 10.3809 -14.5215 C 11.8457 -14.8633 13.3691 -14.9219 14.7949 -13.9844 L 14.209 -12.5293 C 14.0137 -12.0508 13.9844 -11.6504 14.1113 -11.2891 L 3.04688 -0.898438 C 2.06055 0.0195312 1.98242 0.996094 2.8418 1.86523 Z M 10.752 -15.957 C 13.1836 -17.7344 16.4746 -17.4316 18.7012 -15.2051 L 21.1328 -12.793 C 21.3672 -12.5586 21.4062 -12.373 21.3379 -12.0312 L 21.0156 -10.5469 L 22.5195 -9.0625 L 23.5059 -9.12109 C 23.7598 -9.13086 23.8379 -9.11133 24.0332 -8.91602 L 24.6094 -8.33984 L 22.168 -5.89844 L 21.5918 -6.47461 C 21.3965 -6.66992 21.3672 -6.74805 21.377 -7.01172 L 21.4453 -7.98828 L 19.9512 -9.47266 L 18.4277 -9.21875 C 18.1055 -9.15039 17.959 -9.17969 17.7148 -9.41406 L 15.7129 -11.416 C 15.459 -11.6504 15.4297 -11.8164 15.5859 -12.1875 L 16.4648 -14.2773 C 14.9023 -15.7324 12.8711 -16.3574 10.8398 -15.7617 C 10.6836 -15.7227 10.625 -15.8496 10.752 -15.957 Z M 5.27344 2.30469 L 4.10156 1.14258 C 3.63281 0.683594 3.74023 0.341797 4.14062 -0.0195312 L 14.9512 -10.1953 L 16.416 -8.71094 L 6.42578 2.27539 C 6.07422 2.67578 5.74219 2.77344 5.27344 2.30469 Z"/>
  </g>
  <text style="stroke:none;fill:black;font-family:-apple-system,&quot;SF Pro Display&quot;,&quot;SF Pro Text&quot;,Helvetica,sans-serif;font-weight:bold;" transform="matrix(1 0 0 1 1289 1953)">Exporting</text>
  <text style="stroke:none;fill:black;font-family:-apple-system,&quot;SF Pro Display&quot;,&quot;SF Pro Text&quot;,Helvetica,sans-serif;" transform="matrix(1 0 0 1 1289 1971)">Symbols should be outlined when exporting to ensure the</text>
  <text style="stroke:none;fill:black;font-family:-apple-system,&quot;SF Pro Display&quot;,&quot;SF Pro Text&quot;,Helvetica,sans-serif;" transform="matrix(1 0 0 1 1289 1989)">design is preserved when submitting to Xcode.</text>
  <text id="template-version" style="stroke:none;fill:black;font-family:-apple-system,&quot;SF Pro Display&quot;,&quot;SF Pro Text&quot;,Helvetica,sans-serif;text-anchor:end;" transform="matrix(1 0 0 1 3036 1933)">Template v.2.0</text>
  <text style="stroke:none;fill:black;font-family:-apple-system,&quot;SF Pro Display&quot;,&quot;SF Pro Text&quot;,Helvetica,sans-serif;text-anchor:end;" transform="matrix(1 0 0 1 3036 1951)">Requires Xcode 12 or greater</text>
  <text style="stroke:none;fill:black;font-family:-apple-system,&quot;SF Pro Display&quot;,&quot;SF Pro Text&quot;,Helvetica,sans-serif;text-anchor:end;" transform="matrix(1 0 0 1 3036 1969)">Generated from rectangle.grid.1x2</text>
  <text style="stroke:none;fill:black;font-family:-apple-system,&quot;SF Pro Display&quot;,&quot;SF Pro Text&quot;,Helvetica,sans-serif;text-anchor:end;" transform="matrix(1 0 0 1 3036 1987)">Typeset at 100 points</text>
  <text style="stroke:none;fill:black;font-family:-apple-system,&quot;SF Pro Display&quot;,&quot;SF Pro Text&quot;,Helvetica,sans-serif;" transform="matrix(1 0 0 1 263 726)">Small</text>
  <text style="stroke:none;fill:black;font-family:-apple-system,&quot;SF Pro Display&quot;,&quot;SF Pro Text&quot;,Helvetica,sans-serif;" transform="matrix(1 0 0 1 263 1156)">Medium</text>
  <text style="stroke:none;fill:black;font-family:-apple-system,&quot;SF Pro Display&quot;,&quot;SF Pro Text&quot;,Helvetica,sans-serif;" transform="matrix(1 0 0 1 263 1586)">Large</text>
 </g>
 <g id="Guides">
  <g id="H-reference" style="fill:#27AAE1;stroke:none;" transform="matrix(1 0 0 1 339 696)">
   <path d="M 0.976562 0 L 3.66211 0 L 12.9883 -24.4629 L 45.7031 -24.4629 L 55.0781 0 L 57.7148 0 L 30.6152 -70.459 L 28.125 -70.459 Z M 29.2969 -67.1387 L 29.3945 -67.1387 L 44.873 -26.709 L 13.8672 -26.709 Z"/>
  </g>
  <line id="Baseline-S" style="fill:none;stroke:#27AAE1;opacity:1;stroke-width:0.5;" x1="263" x2="3036" y1="696" y2="696"/>
  <line id="Capline-S" style="fill:none;stroke:#27AAE1;opacity:1;stroke-width:0.5;" x1="263" x2="3036" y1="625.541" y2="625.541"/>
  <g id="H-reference" style="fill:#27AAE1;stroke:none;" transform="matrix(1 0 0 1 339 1126)">
   <path d="M 0.976562 0 L 3.66211 0 L 12.9883 -24.4629 L 45.7031 -24.4629 L 55.0781 0 L 57.7148 0 L 30.6152 -70.459 L 28.125 -70.459 Z M 29.2969 -67.1387 L 29.3945 -67.1387 L 44.873 -26.709 L 13.8672 -26.709 Z"/>
  </g>
  <line id="Baseline-M" style="fill:none;stroke:#27AAE1;opacity:1;stroke-width:0.5;" x1="263" x2="3036" y1="1126" y2="1126"/>
  <line id="Capline-M" style="fill:none;stroke:#27AAE1;opacity:1;stroke-width:0.5;" x1="263" x2="3036" y1="1055.54" y2="1055.54"/>
  <g id="H-reference" style="fill:#27AAE1;stroke:none;" transform="matrix(1 0 0 1 339 1556)">
   <path d="M 0.976562 0 L 3.66211 0 L 12.9883 -24.4629 L 45.7031 -24.4629 L 55.0781 0 L 57.7148 0 L 30.6152 -70.459 L 28.125 -70.459 Z M 29.2969 -67.1387 L 29.3945 -67.1387 L 44.873 -26.709 L 13.8672 -26.709 Z"/>
  </g>
  <line id="Baseline-L" style="fill:none;stroke:#27AAE1;opacity:1;stroke-width:0.5;" x1="263" x2="3036" y1="1556" y2="1556"/>
  <line id="Capline-L" style="fill:none;stroke:#27AAE1;opacity:1;stroke-width:0.5;" x1="263" x2="3036" y1="1485.54" y2="1485.54"/>
  <line id="left-margin" style="fill:none;stroke:#00AEEF;stroke-width:0.5;opacity:1.0;" x1="1384.63" x2="1384.63" y1="1030.79" y2="1150.12"/>
  <line id="right-margin" style="fill:none;stroke:#00AEEF;stroke-width:0.5;opacity:1.0;" x1="1515.05" x2="1515.05" y1="1030.79" y2="1150.12"/>
 </g>
 <g id="Symbols">
  <g id="Black-L" transform="matrix(1 0 0 1 2839.87 1556)">
   <path d="M 35.791 -39.1113 L 151.221 -39.1113 C 164.258 -39.1113 170.996 -45.8008 170.996 -58.7891 L 170.996 -84.2285 C 170.996 -97.2168 164.258 -103.906 151.221 -103.906 L 35.791 -103.906 C 22.8027 -103.906 16.0645 -97.2168 16.0645 -84.2285 L 16.0645 -58.7891 C 16.0645 -45.8008 22.8027 -39.1113 35.791 -39.1113 Z M 40.0391 -59.1309 C 37.5 -59.1309 36.084 -60.498 36.084 -63.0859 L 36.084 -79.8828 C 36.084 -82.5195 37.5 -83.8867 40.0391 -83.8867 L 146.973 -83.8867 C 149.561 -83.8867 150.977 -82.5195 150.977 -79.8828 L 150.977 -63.0859 C 150.977 -60.498 149.561 -59.1309 146.973 -59.1309 Z M 35.791 33.5449 L 151.221 33.5449 C 164.258 33.5449 170.996 26.8066 170.996 13.8184 L 170.996 -11.6211 C 170.996 -24.5605 164.258 -31.2988 151.221 -31.2988 L 35.791 -31.2988 C 22.8027 -31.2988 16.0645 -24.5605 16.0645 -11.6211 L 16.0645 13.8184 C 16.0645 26.8066 22.8027 33.5449 35.791 33.5449 Z M 40.0391 13.5254 C 37.5 13.5254 36.084 12.1094 36.084 9.52148 L 36.084 -7.27539 C 36.084 -9.91211 37.5 -11.2793 40.0391 -11.2793 L 146.973 -11.2793 C 149.561 -11.2793 150.977 -9.91211 150.977 -7.27539 L 150.977 9.52148 C 150.977 12.1094 149.561 13.5254 146.973 13.5254 Z"/>
  </g>
  <g id="Heavy-L" transform="matrix(1 0 0 1 2545.45 1556)">
   <path d="M 34.2773 -39.4043 L 148.193 -39.4043 C 160.205 -39.4043 166.406 -45.5566 166.406 -57.5684 L 166.406 -83.1055 C 166.406 -95.1172 160.205 -101.221 148.193 -101.221 L 34.2773 -101.221 C 22.2656 -101.221 16.0645 -95.1172 16.0645 -83.1055 L 16.0645 -57.5684 C 16.0645 -45.5566 22.2656 -39.4043 34.2773 -39.4043 Z M 37.5977 -56.6406 C 34.8145 -56.6406 33.3008 -58.1543 33.3008 -61.0352 L 33.3008 -79.6387 C 33.3008 -82.5195 34.8145 -83.9844 37.5977 -83.9844 L 144.824 -83.9844 C 147.656 -83.9844 149.17 -82.5195 149.17 -79.6387 L 149.17 -61.0352 C 149.17 -58.1543 147.656 -56.6406 144.824 -56.6406 Z M 34.2773 30.8594 L 148.193 30.8594 C 160.205 30.8594 166.406 24.7559 166.406 12.7441 L 166.406 -12.8418 C 166.406 -24.8047 160.205 -30.957 148.193 -30.957 L 34.2773 -30.957 C 22.2656 -30.957 16.0645 -24.8047 16.0645 -12.8418 L 16.0645 12.7441 C 16.0645 24.7559 22.2656 30.8594 34.2773 30.8594 Z M 37.5977 13.623 C 34.8145 13.623 33.3008 12.1582 33.3008 9.22852 L 33.3008 -9.32617 C 33.3008 -12.2559 34.8145 -13.7207 37.5977 -13.7207 L 144.824 -13.7207 C 147.656 -13.7207 149.17 -12.2559 149.17 -9.32617 L 149.17 9.22852 C 149.17 12.1582 147.656 13.623 144.824 13.623 Z"/>
  </g>
  <g id="Bold-L" transform="matrix(1 0 0 1 2251.31 1556)">
   <path d="M 32.5195 -39.7949 L 144.824 -39.7949 C 155.664 -39.7949 161.279 -45.2637 161.279 -56.1523 L 161.279 -81.8848 C 161.279 -92.7734 155.664 -98.2422 144.824 -98.2422 L 32.5195 -98.2422 C 21.6309 -98.2422 16.0645 -92.7734 16.0645 -81.8848 L 16.0645 -56.1523 C 16.0645 -45.2637 21.6309 -39.7949 32.5195 -39.7949 Z M 34.9121 -53.9062 C 31.7871 -53.9062 30.1758 -55.5176 30.1758 -58.7402 L 30.1758 -79.2969 C 30.1758 -82.5684 31.7871 -84.1309 34.9121 -84.1309 L 142.383 -84.1309 C 145.508 -84.1309 147.168 -82.5684 147.168 -79.2969 L 147.168 -58.7402 C 147.168 -55.5176 145.508 -53.9062 142.383 -53.9062 Z M 32.5195 27.8809 L 144.824 27.8809 C 155.664 27.8809 161.279 22.4121 161.279 11.5234 L 161.279 -14.209 C 161.279 -25.0977 155.664 -30.5664 144.824 -30.5664 L 32.5195 -30.5664 C 21.6309 -30.5664 16.0645 -25.0977 16.0645 -14.209 L 16.0645 11.5234 C 16.0645 22.4121 21.6309 27.8809 32.5195 27.8809 Z M 34.9121 13.7695 C 31.7871 13.7695 30.1758 12.1582 30.1758 8.93555 L 30.1758 -11.6211 C 30.1758 -14.8926 31.7871 -16.4551 34.9121 -16.4551 L 142.383 -16.4551 C 145.508 -16.4551 147.168 -14.8926 147.168 -11.6211 L 147.168 8.93555 C 147.168 12.1582 145.508 13.7695 142.383 13.7695 Z"/>
  </g>
  <g id="Semibold-L" transform="matrix(1 0 0 1 1956.38 1556)">
   <path d="M 31.2988 -40.0391 L 142.48 -40.0391 C 152.588 -40.0391 157.715 -45.0684 157.715 -55.2246 L 157.715 -81.0547 C 157.715 -91.1621 152.588 -96.1426 142.48 -96.1426 L 31.2988 -96.1426 C 21.2402 -96.1426 16.0645 -91.1621 16.0645 -81.0547 L 16.0645 -55.2246 C 16.0645 -45.0684 21.2402 -40.0391 31.2988 -40.0391 Z M 33.0566 -52.002 C 29.7363 -52.002 27.9785 -53.6621 27.9785 -57.1289 L 27.9785 -79.1016 C 27.9785 -82.5684 29.7363 -84.2285 33.0566 -84.2285 L 140.674 -84.2285 C 144.043 -84.2285 145.801 -82.5684 145.801 -79.1016 L 145.801 -57.1289 C 145.801 -53.6621 144.043 -52.002 140.674 -52.002 Z M 31.2988 25.8301 L 142.48 25.8301 C 152.588 25.8301 157.715 20.8496 157.715 10.6445 L 157.715 -15.1367 C 157.715 -25.293 152.588 -30.2734 142.48 -30.2734 L 31.2988 -30.2734 C 21.2402 -30.2734 16.0645 -25.293 16.0645 -15.1367 L 16.0645 10.6445 C 16.0645 20.8496 21.2402 25.8301 31.2988 25.8301 Z M 33.0566 13.916 C 29.7363 13.916 27.9785 12.207 27.9785 8.74023 L 27.9785 -13.1836 C 27.9785 -16.6992 29.7363 -18.3594 33.0566 -18.3594 L 140.674 -18.3594 C 144.043 -18.3594 145.801 -16.6992 145.801 -13.1836 L 145.801 8.74023 C 145.801 12.207 144.043 13.916 140.674 13.916 Z"/>
  </g>
  <g id="Medium-L" transform="matrix(1 0 0 1 1661.01 1556)">
   <path d="M 30.4199 -40.2344 L 140.723 -40.2344 C 150.195 -40.2344 155.029 -44.873 155.029 -54.4922 L 155.029 -80.3711 C 155.029 -89.9414 150.195 -94.5801 140.723 -94.5801 L 30.4199 -94.5801 C 20.8984 -94.5801 16.0645 -89.9414 16.0645 -80.3711 L 16.0645 -54.4922 C 16.0645 -44.873 20.8984 -40.2344 30.4199 -40.2344 Z M 31.6406 -50.5371 C 28.1738 -50.5371 26.3672 -52.2949 26.3672 -55.9082 L 26.3672 -78.9062 C 26.3672 -82.5684 28.1738 -84.2773 31.6406 -84.2773 L 139.404 -84.2773 C 142.969 -84.2773 144.775 -82.5684 144.775 -78.9062 L 144.775 -55.9082 C 144.775 -52.2949 142.969 -50.5371 139.404 -50.5371 Z M 30.4199 24.2676 L 140.723 24.2676 C 150.195 24.2676 155.029 19.6289 155.029 10.0098 L 155.029 -15.8691 C 155.029 -25.4395 150.195 -30.0781 140.723 -30.0781 L 30.4199 -30.0781 C 20.8984 -30.0781 16.0645 -25.4395 16.0645 -15.8691 L 16.0645 10.0098 C 16.0645 19.6289 20.8984 24.2676 30.4199 24.2676 Z M 31.6406 13.9648 C 28.1738 13.9648 26.3672 12.207 26.3672 8.59375 L 26.3672 -14.4043 C 26.3672 -18.0664 28.1738 -19.7754 31.6406 -19.7754 L 139.404 -19.7754 C 142.969 -19.7754 144.775 -18.0664 144.775 -14.4043 L 144.775 8.59375 C 144.775 12.207 142.969 13.9648 139.404 13.9648 Z"/>
  </g>
  <g id="Regular-L" transform="matrix(1 0 0 1 1366.03 1556)">
   <path d="M 29.1992 -40.5273 L 138.428 -40.5273 C 147.119 -40.5273 151.562 -44.6777 151.562 -53.5645 L 151.562 -79.541 C 151.562 -88.3789 147.119 -92.5293 138.428 -92.5293 L 29.1992 -92.5293 C 20.5078 -92.5293 16.0645 -88.3789 16.0645 -79.541 L 16.0645 -53.5645 C 16.0645 -44.6777 20.5078 -40.5273 29.1992 -40.5273 Z M 29.834 -48.6816 C 26.123 -48.6816 24.2188 -50.4883 24.2188 -54.3457 L 24.2188 -78.7109 C 24.2188 -82.6172 26.123 -84.375 29.834 -84.375 L 137.744 -84.375 C 141.504 -84.375 143.408 -82.6172 143.408 -78.7109 L 143.408 -54.3457 C 143.408 -50.4883 141.504 -48.6816 137.744 -48.6816 Z M 29.1992 22.2168 L 138.428 22.2168 C 147.119 22.2168 151.562 18.0176 151.562 9.17969 L 151.562 -16.7969 C 151.562 -25.6348 147.119 -29.834 138.428 -29.834 L 29.1992 -29.834 C 20.5078 -29.834 16.0645 -25.6348 16.0645 -16.7969 L 16.0645 9.17969 C 16.0645 18.0176 20.5078 22.2168 29.1992 22.2168 Z M 29.834 14.0625 C 26.123 14.0625 24.2188 12.2559 24.2188 8.39844 L 24.2188 -15.9668 C 24.2188 -19.873 26.123 -21.6797 29.834 -21.6797 L 137.744 -21.6797 C 141.504 -21.6797 143.408 -19.873 143.408 -15.9668 L 143.408 8.39844 C 143.408 12.2559 141.504 14.0625 137.744 14.0625 Z"/>
  </g>
  <g id="Light-L" transform="matrix(1 0 0 1 1069.78 1556)">
   <path d="M 27.3438 -40.6738 L 139.307 -40.6738 C 146.777 -40.6738 150.635 -44.1895 150.635 -51.9043 L 150.635 -80.5176 C 150.635 -88.1836 146.777 -91.6992 139.307 -91.6992 L 27.3438 -91.6992 C 19.9219 -91.6992 16.0645 -88.1836 16.0645 -80.5176 L 16.0645 -51.9043 C 16.0645 -44.1895 19.9219 -40.6738 27.3438 -40.6738 Z M 27.7832 -46.9727 C 24.1211 -46.9727 22.3633 -48.6328 22.3633 -52.4414 L 22.3633 -79.8828 C 22.3633 -83.7402 24.1211 -85.4004 27.7832 -85.4004 L 138.867 -85.4004 C 142.578 -85.4004 144.336 -83.7402 144.336 -79.8828 L 144.336 -52.4414 C 144.336 -48.6328 142.578 -46.9727 138.867 -46.9727 Z M 27.3438 21.4355 L 139.307 21.4355 C 146.777 21.4355 150.635 17.8711 150.635 10.2051 L 150.635 -18.4082 C 150.635 -26.123 146.777 -29.6387 139.307 -29.6387 L 27.3438 -29.6387 C 19.9219 -29.6387 16.0645 -26.123 16.0645 -18.4082 L 16.0645 10.2051 C 16.0645 17.8711 19.9219 21.4355 27.3438 21.4355 Z M 27.7832 15.0879 C 24.1211 15.0879 22.3633 13.4277 22.3633 9.61914 L 22.3633 -17.8223 C 22.3633 -21.6309 24.1211 -23.3398 27.7832 -23.3398 L 138.867 -23.3398 C 142.578 -23.3398 144.336 -21.6309 144.336 -17.8223 L 144.336 9.61914 C 144.336 13.4277 142.578 15.0879 138.867 15.0879 Z"/>
  </g>
  <g id="Thin-L" transform="matrix(1 0 0 1 773.683 1556)">
   <path d="M 24.9023 -40.8691 L 140.576 -40.8691 C 146.289 -40.8691 149.414 -43.5059 149.414 -49.707 L 149.414 -81.7383 C 149.414 -87.9395 146.289 -90.5762 140.576 -90.5762 L 24.9023 -90.5762 C 19.1406 -90.5762 16.0645 -87.9395 16.0645 -81.7383 L 16.0645 -49.707 C 16.0645 -43.5059 19.1406 -40.8691 24.9023 -40.8691 Z M 25.1465 -44.7266 C 21.4355 -44.7266 19.9219 -46.1914 19.9219 -49.9512 L 19.9219 -81.4941 C 19.9219 -85.2051 21.4355 -86.7188 25.1465 -86.7188 L 140.332 -86.7188 C 144.043 -86.7188 145.557 -85.2051 145.557 -81.4941 L 145.557 -49.9512 C 145.557 -46.1914 144.043 -44.7266 140.332 -44.7266 Z M 24.9023 20.3613 L 140.576 20.3613 C 146.289 20.3613 149.414 17.6758 149.414 11.5234 L 149.414 -20.5566 C 149.414 -26.7578 146.289 -29.3945 140.576 -29.3945 L 24.9023 -29.3945 C 19.1406 -29.3945 16.0645 -26.7578 16.0645 -20.5566 L 16.0645 11.5234 C 16.0645 17.6758 19.1406 20.3613 24.9023 20.3613 Z M 25.1465 16.5039 C 21.4355 16.5039 19.9219 14.9902 19.9219 11.2793 L 19.9219 -20.3125 C 19.9219 -24.0234 21.4355 -25.5371 25.1465 -25.5371 L 140.332 -25.5371 C 144.043 -25.5371 145.557 -24.0234 145.557 -20.3125 L 145.557 11.2793 C 145.557 14.9902 144.043 16.5039 140.332 16.5039 Z"/>
  </g>
  <g id="Ultralight-L" transform="matrix(1 0 0 1 477.289 1556)">
   <path d="M 23.6816 -40.9668 L 141.162 -40.9668 C 146.045 -40.9668 148.779 -43.1641 148.779 -48.5352 L 148.779 -82.373 C 148.779 -87.793 146.045 -89.9902 141.162 -89.9902 L 23.6816 -89.9902 C 18.75 -89.9902 16.0645 -87.793 16.0645 -82.373 L 16.0645 -48.5352 C 16.0645 -43.1641 18.75 -40.9668 23.6816 -40.9668 Z M 23.7793 -43.5547 C 20.0684 -43.5547 18.7012 -44.9707 18.7012 -48.6328 L 18.7012 -82.3242 C 18.7012 -85.9863 20.0684 -87.4023 23.7793 -87.4023 L 141.064 -87.4023 C 144.775 -87.4023 146.143 -85.9863 146.143 -82.3242 L 146.143 -48.6328 C 146.143 -44.9707 144.775 -43.5547 141.064 -43.5547 Z M 23.6816 19.7754 L 141.162 19.7754 C 146.045 19.7754 148.779 17.5781 148.779 12.207 L 148.779 -21.6309 C 148.779 -27.0508 146.045 -29.248 141.162 -29.248 L 23.6816 -29.248 C 18.75 -29.248 16.0645 -27.0508 16.0645 -21.6309 L 16.0645 12.207 C 16.0645 17.5781 18.75 19.7754 23.6816 19.7754 Z M 23.7793 17.1875 C 20.0684 17.1875 18.7012 15.7715 18.7012 12.1094 L 18.7012 -21.582 C 18.7012 -25.2441 20.0684 -26.6602 23.7793 -26.6602 L 141.064 -26.6602 C 144.775 -26.6602 146.143 -25.2441 146.143 -21.582 L 146.143 12.1094 C 146.143 15.7715 144.775 17.1875 141.064 17.1875 Z"/>
  </g>
  <g id="Black-M" transform="matrix(1 0 0 1 2858.08 1126)">
   <path d="M 28.8574 -37.8418 L 121.777 -37.8418 C 132.568 -37.8418 138.184 -43.5059 138.184 -54.248 L 138.184 -75.1953 C 138.184 -85.9863 132.568 -91.6016 121.777 -91.6016 L 28.8574 -91.6016 C 18.1152 -91.6016 12.4512 -85.9863 12.4512 -75.1953 L 12.4512 -54.248 C 12.4512 -43.5059 18.1152 -37.8418 28.8574 -37.8418 Z M 33.2031 -56.1523 C 31.5918 -56.1523 30.7617 -56.9824 30.7617 -58.5938 L 30.7617 -70.8496 C 30.7617 -72.4609 31.5918 -73.291 33.2031 -73.291 L 117.432 -73.291 C 119.043 -73.291 119.873 -72.4609 119.873 -70.8496 L 119.873 -58.5938 C 119.873 -56.9824 119.043 -56.1523 117.432 -56.1523 Z M 28.8574 21.1914 L 121.777 21.1914 C 132.568 21.1914 138.184 15.5762 138.184 4.78516 L 138.184 -16.1133 C 138.184 -26.9043 132.568 -32.5684 121.777 -32.5684 L 28.8574 -32.5684 C 18.1152 -32.5684 12.4512 -26.9043 12.4512 -16.1133 L 12.4512 4.78516 C 12.4512 15.5762 18.1152 21.1914 28.8574 21.1914 Z M 33.2031 2.92969 C 31.5918 2.92969 30.7617 2.05078 30.7617 0.488281 L 30.7617 -11.8164 C 30.7617 -13.3789 31.5918 -14.2578 33.2031 -14.2578 L 117.432 -14.2578 C 119.043 -14.2578 119.873 -13.3789 119.873 -11.8164 L 119.873 0.488281 C 119.873 2.05078 119.043 2.92969 117.432 2.92969 Z"/>
  </g>
  <g id="Heavy-M" transform="matrix(1 0 0 1 2563.76 1126)">
   <path d="M 27.6367 -38.1836 L 118.213 -38.1836 C 128.223 -38.1836 133.398 -43.3594 133.398 -53.3691 L 133.398 -73.7305 C 133.398 -83.7402 128.223 -88.916 118.213 -88.916 L 27.6367 -88.916 C 17.627 -88.916 12.4512 -83.7402 12.4512 -73.7305 L 12.4512 -53.3691 C 12.4512 -43.3594 17.627 -38.1836 27.6367 -38.1836 Z M 31.1035 -53.9062 C 29.1992 -53.9062 28.1738 -54.9316 28.1738 -56.8359 L 28.1738 -70.2637 C 28.1738 -72.168 29.1992 -73.1934 31.1035 -73.1934 L 114.795 -73.1934 C 116.699 -73.1934 117.676 -72.168 117.676 -70.2637 L 117.676 -56.8359 C 117.676 -54.9316 116.699 -53.9062 114.795 -53.9062 Z M 27.6367 18.5059 L 118.213 18.5059 C 128.223 18.5059 133.398 13.3301 133.398 3.32031 L 133.398 -17.041 C 133.398 -27.0508 128.223 -32.2266 118.213 -32.2266 L 27.6367 -32.2266 C 17.627 -32.2266 12.4512 -27.0508 12.4512 -17.041 L 12.4512 3.32031 C 12.4512 13.3301 17.627 18.5059 27.6367 18.5059 Z M 31.1035 2.7832 C 29.1992 2.7832 28.1738 1.75781 28.1738 -0.146484 L 28.1738 -13.5742 C 28.1738 -15.4785 29.1992 -16.5039 31.1035 -16.5039 L 114.795 -16.5039 C 116.699 -16.5039 117.676 -15.4785 117.676 -13.5742 L 117.676 -0.146484 C 117.676 1.75781 116.699 2.7832 114.795 2.7832 Z"/>
  </g>
  <g id="Bold-M" transform="matrix(1 0 0 1 2269.71 1126)">
   <path d="M 26.2695 -38.5254 L 114.258 -38.5254 C 123.389 -38.5254 128.076 -43.1641 128.076 -52.3438 L 128.076 -72.1191 C 128.076 -81.25 123.389 -85.8887 114.258 -85.8887 L 26.2695 -85.8887 C 17.1387 -85.8887 12.4512 -81.25 12.4512 -72.1191 L 12.4512 -52.3438 C 12.4512 -43.1641 17.1387 -38.5254 26.2695 -38.5254 Z M 28.7109 -51.3672 C 26.5137 -51.3672 25.293 -52.5391 25.293 -54.8828 L 25.293 -69.5312 C 25.293 -71.875 26.5137 -73.0469 28.7109 -73.0469 L 111.768 -73.0469 C 114.014 -73.0469 115.234 -71.875 115.234 -69.5312 L 115.234 -54.8828 C 115.234 -52.5391 114.014 -51.3672 111.768 -51.3672 Z M 26.2695 15.4785 L 114.258 15.4785 C 123.389 15.4785 128.076 10.8398 128.076 1.70898 L 128.076 -18.0664 C 128.076 -27.1973 123.389 -31.8359 114.258 -31.8359 L 26.2695 -31.8359 C 17.1387 -31.8359 12.4512 -27.1973 12.4512 -18.0664 L 12.4512 1.70898 C 12.4512 10.8398 17.1387 15.4785 26.2695 15.4785 Z M 28.7109 2.63672 C 26.5137 2.63672 25.293 1.46484 25.293 -0.830078 L 25.293 -15.5273 C 25.293 -17.8223 26.5137 -18.9941 28.7109 -18.9941 L 111.768 -18.9941 C 114.014 -18.9941 115.234 -17.8223 115.234 -15.5273 L 115.234 -0.830078 C 115.234 1.46484 114.014 2.63672 111.768 2.63672 Z"/>
  </g>
  <g id="Semibold-M" transform="matrix(1 0 0 1 1974.83 1126)">
   <path d="M 25.3418 -38.7695 L 111.523 -38.7695 C 120.068 -38.7695 124.414 -43.0664 124.414 -51.6113 L 124.414 -70.9961 C 124.414 -79.4922 120.068 -83.7891 111.523 -83.7891 L 25.3418 -83.7891 C 16.7969 -83.7891 12.4512 -79.4922 12.4512 -70.9961 L 12.4512 -51.6113 C 12.4512 -43.0664 16.7969 -38.7695 25.3418 -38.7695 Z M 27.0996 -49.6582 C 24.6582 -49.6582 23.291 -50.9277 23.291 -53.5156 L 23.291 -69.0918 C 23.291 -71.6797 24.6582 -72.9492 27.0996 -72.9492 L 109.717 -72.9492 C 112.207 -72.9492 113.574 -71.6797 113.574 -69.0918 L 113.574 -53.5156 C 113.574 -50.9277 112.207 -49.6582 109.717 -49.6582 Z M 25.3418 13.4277 L 111.523 13.4277 C 120.068 13.4277 124.414 9.13086 124.414 0.585938 L 124.414 -18.7988 C 124.414 -27.2949 120.068 -31.5918 111.523 -31.5918 L 25.3418 -31.5918 C 16.7969 -31.5918 12.4512 -27.2949 12.4512 -18.7988 L 12.4512 0.585938 C 12.4512 9.13086 16.7969 13.4277 25.3418 13.4277 Z M 27.0996 2.53906 C 24.6582 2.53906 23.291 1.26953 23.291 -1.31836 L 23.291 -16.8945 C 23.291 -19.4824 24.6582 -20.752 27.0996 -20.752 L 109.717 -20.752 C 112.207 -20.752 113.574 -19.4824 113.574 -16.8945 L 113.574 -1.31836 C 113.574 1.26953 112.207 2.53906 109.717 2.53906 Z"/>
  </g>
  <g id="Medium-M" transform="matrix(1 0 0 1 1679.51 1126)">
   <path d="M 24.6094 -38.9648 L 109.424 -38.9648 C 117.529 -38.9648 121.631 -42.9688 121.631 -51.0742 L 121.631 -70.166 C 121.631 -78.2227 117.529 -82.1777 109.424 -82.1777 L 24.6094 -82.1777 C 16.5527 -82.1777 12.4512 -78.2227 12.4512 -70.166 L 12.4512 -51.0742 C 12.4512 -42.9688 16.5527 -38.9648 24.6094 -38.9648 Z M 25.8789 -48.3398 C 23.2422 -48.3398 21.7773 -49.707 21.7773 -52.4902 L 21.7773 -68.7012 C 21.7773 -71.4844 23.2422 -72.8516 25.8789 -72.8516 L 108.154 -72.8516 C 110.84 -72.8516 112.256 -71.4844 112.256 -68.7012 L 112.256 -52.4902 C 112.256 -49.707 110.84 -48.3398 108.154 -48.3398 Z M 24.6094 11.8164 L 109.424 11.8164 C 117.529 11.8164 121.631 7.8125 121.631 -0.244141 L 121.631 -19.3359 C 121.631 -27.3926 117.529 -31.3965 109.424 -31.3965 L 24.6094 -31.3965 C 16.5527 -31.3965 12.4512 -27.3926 12.4512 -19.3359 L 12.4512 -0.244141 C 12.4512 7.8125 16.5527 11.8164 24.6094 11.8164 Z M 25.8789 2.49023 C 23.2422 2.49023 21.7773 1.07422 21.7773 -1.66016 L 21.7773 -17.9199 C 21.7773 -20.7031 23.2422 -22.0703 25.8789 -22.0703 L 108.154 -22.0703 C 110.84 -22.0703 112.256 -20.7031 112.256 -17.9199 L 112.256 -1.66016 C 112.256 1.07422 110.84 2.49023 108.154 2.49023 Z"/>
  </g>
  <g id="Regular-M" transform="matrix(1 0 0 1 1384.63 1126)">
   <path d="M 23.6816 -39.209 L 106.738 -39.209 C 114.209 -39.209 117.969 -42.8711 117.969 -50.3906 L 117.969 -69.043 C 117.969 -76.5137 114.209 -80.127 106.738 -80.127 L 23.6816 -80.127 C 16.2109 -80.127 12.4512 -76.5137 12.4512 -69.043 L 12.4512 -50.3906 C 12.4512 -42.8711 16.2109 -39.209 23.6816 -39.209 Z M 24.2676 -46.582 C 21.3867 -46.582 19.8242 -48.0957 19.8242 -51.123 L 19.8242 -68.2129 C 19.8242 -71.2891 21.3867 -72.7539 24.2676 -72.7539 L 106.104 -72.7539 C 109.033 -72.7539 110.596 -71.2891 110.596 -68.2129 L 110.596 -51.123 C 110.596 -48.0957 109.033 -46.582 106.104 -46.582 Z M 23.6816 9.76562 L 106.738 9.76562 C 114.209 9.76562 117.969 6.15234 117.969 -1.36719 L 117.969 -20.0684 C 117.969 -27.4902 114.209 -31.1523 106.738 -31.1523 L 23.6816 -31.1523 C 16.2109 -31.1523 12.4512 -27.4902 12.4512 -20.0684 L 12.4512 -1.36719 C 12.4512 6.15234 16.2109 9.76562 23.6816 9.76562 Z M 24.2676 2.39258 C 21.3867 2.39258 19.8242 0.878906 19.8242 -2.14844 L 19.8242 -19.2383 C 19.8242 -22.3145 21.3867 -23.7793 24.2676 -23.7793 L 106.104 -23.7793 C 109.033 -23.7793 110.596 -22.3145 110.596 -19.2383 L 110.596 -2.14844 C 110.596 0.878906 109.033 2.39258 106.104 2.39258 Z"/>
  </g>
  <g id="Light-M" transform="matrix(1 0 0 1 1088.34 1126)">
   <path d="M 22.0215 -39.3555 L 107.568 -39.3555 C 113.916 -39.3555 117.139 -42.3828 117.139 -48.877 L 117.139 -69.873 C 117.139 -76.3672 113.916 -79.3945 107.568 -79.3945 L 22.0215 -79.3945 C 15.6738 -79.3945 12.4512 -76.3672 12.4512 -69.873 L 12.4512 -48.877 C 12.4512 -42.3828 15.6738 -39.3555 22.0215 -39.3555 Z M 22.4609 -45.0684 C 19.5801 -45.0684 18.1641 -46.4844 18.1641 -49.4141 L 18.1641 -69.3359 C 18.1641 -72.3145 19.5801 -73.6328 22.4609 -73.6328 L 107.129 -73.6328 C 110.01 -73.6328 111.426 -72.3145 111.426 -69.3359 L 111.426 -49.4141 C 111.426 -46.4844 110.01 -45.0684 107.129 -45.0684 Z M 22.0215 9.0332 L 107.568 9.0332 C 113.916 9.0332 117.139 6.00586 117.139 -0.488281 L 117.139 -21.4844 C 117.139 -27.9297 113.916 -30.957 107.568 -30.957 L 22.0215 -30.957 C 15.6738 -30.957 12.4512 -27.9297 12.4512 -21.4844 L 12.4512 -0.488281 C 12.4512 6.00586 15.6738 9.0332 22.0215 9.0332 Z M 22.4609 3.32031 C 19.5801 3.32031 18.1641 1.95312 18.1641 -1.02539 L 18.1641 -20.8984 C 18.1641 -23.9258 19.5801 -25.2441 22.4609 -25.2441 L 107.129 -25.2441 C 110.01 -25.2441 111.426 -23.9258 111.426 -20.8984 L 111.426 -1.02539 C 111.426 1.95312 110.01 3.32031 107.129 3.32031 Z"/>
  </g>
  <g id="Thin-M" transform="matrix(1 0 0 1 792.164 1126)">
   <path d="M 19.8242 -39.5508 L 108.643 -39.5508 C 113.477 -39.5508 116.064 -41.7969 116.064 -46.9238 L 116.064 -70.9961 C 116.064 -76.123 113.477 -78.3691 108.643 -78.3691 L 19.8242 -78.3691 C 14.9902 -78.3691 12.4512 -76.123 12.4512 -70.9961 L 12.4512 -46.9238 C 12.4512 -41.7969 14.9902 -39.5508 19.8242 -39.5508 Z M 20.0684 -43.0664 C 17.1875 -43.0664 15.9668 -44.2871 15.9668 -47.168 L 15.9668 -70.752 C 15.9668 -73.6328 17.1875 -74.8535 20.0684 -74.8535 L 108.447 -74.8535 C 111.328 -74.8535 112.549 -73.6328 112.549 -70.752 L 112.549 -47.168 C 112.549 -44.2871 111.328 -43.0664 108.447 -43.0664 Z M 19.8242 8.05664 L 108.643 8.05664 C 113.477 8.05664 116.064 5.81055 116.064 0.683594 L 116.064 -23.3887 C 116.064 -28.5156 113.477 -30.7617 108.643 -30.7617 L 19.8242 -30.7617 C 14.9902 -30.7617 12.4512 -28.5156 12.4512 -23.3887 L 12.4512 0.683594 C 12.4512 5.81055 14.9902 8.05664 19.8242 8.05664 Z M 20.0684 4.54102 C 17.1875 4.54102 15.9668 3.32031 15.9668 0.439453 L 15.9668 -23.1445 C 15.9668 -26.0254 17.1875 -27.2461 20.0684 -27.2461 L 108.447 -27.2461 C 111.328 -27.2461 112.549 -26.0254 112.549 -23.1445 L 112.549 0.439453 C 112.549 3.32031 111.328 4.54102 108.447 4.54102 Z"/>
  </g>
  <g id="Ultralight-M" transform="matrix(1 0 0 1 495.746 1126)">
   <path d="M 18.7012 -39.6484 L 109.229 -39.6484 C 113.281 -39.6484 115.479 -41.4551 115.479 -45.8984 L 115.479 -71.582 C 115.479 -76.0254 113.281 -77.832 109.229 -77.832 L 18.7012 -77.832 C 14.6484 -77.832 12.4512 -76.0254 12.4512 -71.582 L 12.4512 -45.8984 C 12.4512 -41.4551 14.6484 -39.6484 18.7012 -39.6484 Z M 18.8477 -42.041 C 15.9668 -42.041 14.8438 -43.1641 14.8438 -45.9961 L 14.8438 -71.4844 C 14.8438 -74.3164 15.9668 -75.4395 18.8477 -75.4395 L 109.131 -75.4395 C 111.963 -75.4395 113.086 -74.3164 113.086 -71.4844 L 113.086 -45.9961 C 113.086 -43.1641 111.963 -42.041 109.131 -42.041 Z M 18.7012 7.56836 L 109.229 7.56836 C 113.281 7.56836 115.479 5.76172 115.479 1.31836 L 115.479 -24.3652 C 115.479 -28.8086 113.281 -30.6152 109.229 -30.6152 L 18.7012 -30.6152 C 14.6484 -30.6152 12.4512 -28.8086 12.4512 -24.3652 L 12.4512 1.31836 C 12.4512 5.76172 14.6484 7.56836 18.7012 7.56836 Z M 18.8477 5.17578 C 15.9668 5.17578 14.8438 4.05273 14.8438 1.2207 L 14.8438 -24.2676 C 14.8438 -27.0996 15.9668 -28.2227 18.8477 -28.2227 L 109.131 -28.2227 C 111.963 -28.2227 113.086 -27.0996 113.086 -24.2676 L 113.086 1.2207 C 113.086 4.05273 111.963 5.17578 109.131 5.17578 Z"/>
  </g>
  <g id="Black-S" transform="matrix(1 0 0 1 2874.56 696)">
   <path d="M 22.5586 -37.3047 L 95.1172 -37.3047 C 103.516 -37.3047 107.91 -41.6992 107.91 -50.0977 L 107.91 -66.4062 C 107.91 -74.8047 103.516 -79.1992 95.1172 -79.1992 L 22.5586 -79.1992 C 14.1602 -79.1992 9.76562 -74.8047 9.76562 -66.4062 L 9.76562 -50.0977 C 9.76562 -41.6992 14.1602 -37.3047 22.5586 -37.3047 Z M 25.8789 -51.4648 C 24.6094 -51.4648 23.9258 -52.1484 23.9258 -53.418 L 23.9258 -63.0859 C 23.9258 -64.3555 24.6094 -65.0391 25.8789 -65.0391 L 91.7969 -65.0391 C 93.0664 -65.0391 93.75 -64.3555 93.75 -63.0859 L 93.75 -53.418 C 93.75 -52.1484 93.0664 -51.4648 91.7969 -51.4648 Z M 22.5586 8.78906 L 95.1172 8.78906 C 103.516 8.78906 107.91 4.39453 107.91 -4.00391 L 107.91 -20.3125 C 107.91 -28.7109 103.516 -33.1055 95.1172 -33.1055 L 22.5586 -33.1055 C 14.1602 -33.1055 9.76562 -28.7109 9.76562 -20.3125 L 9.76562 -4.00391 C 9.76562 4.39453 14.1602 8.78906 22.5586 8.78906 Z M 25.8789 -5.37109 C 24.6094 -5.37109 23.9258 -6.05469 23.9258 -7.32422 L 23.9258 -16.9922 C 23.9258 -18.2617 24.6094 -18.9453 25.8789 -18.9453 L 91.7969 -18.9453 C 93.0664 -18.9453 93.75 -18.2617 93.75 -16.9922 L 93.75 -7.32422 C 93.75 -6.05469 93.0664 -5.37109 91.7969 -5.37109 Z"/>
  </g>
  <g id="Heavy-S" transform="matrix(1 0 0 1 2579.63 696)">
   <path d="M 21.8262 -37.5488 L 92.334 -37.5488 C 100.244 -37.5488 104.346 -41.6504 104.346 -49.5605 L 104.346 -65.1855 C 104.346 -73.0957 100.244 -77.1973 92.334 -77.1973 L 21.8262 -77.1973 C 13.8672 -77.1973 9.76562 -73.0957 9.76562 -65.1855 L 9.76562 -49.5605 C 9.76562 -41.6504 13.8672 -37.5488 21.8262 -37.5488 Z M 24.4629 -49.9023 C 22.9492 -49.9023 22.1191 -50.7324 22.1191 -52.2461 L 22.1191 -62.5 C 22.1191 -64.0137 22.9492 -64.8438 24.4629 -64.8438 L 89.6484 -64.8438 C 91.1621 -64.8438 91.9922 -64.0137 91.9922 -62.5 L 91.9922 -52.2461 C 91.9922 -50.7324 91.1621 -49.9023 89.6484 -49.9023 Z M 21.8262 6.78711 L 92.334 6.78711 C 100.244 6.78711 104.346 2.68555 104.346 -5.22461 L 104.346 -20.8496 C 104.346 -28.7598 100.244 -32.8613 92.334 -32.8613 L 21.8262 -32.8613 C 13.8672 -32.8613 9.76562 -28.7598 9.76562 -20.8496 L 9.76562 -5.22461 C 9.76562 2.68555 13.8672 6.78711 21.8262 6.78711 Z M 24.4629 -5.56641 C 22.9492 -5.56641 22.1191 -6.39648 22.1191 -7.91016 L 22.1191 -18.1641 C 22.1191 -19.6777 22.9492 -20.5078 24.4629 -20.5078 L 89.6484 -20.5078 C 91.1621 -20.5078 91.9922 -19.6777 91.9922 -18.1641 L 91.9922 -7.91016 C 91.9922 -6.39648 91.1621 -5.56641 89.6484 -5.56641 Z"/>
  </g>
  <g id="Bold-S" transform="matrix(1 0 0 1 2284.9 696)">
   <path d="M 20.9473 -37.793 L 89.1602 -37.793 C 96.582 -37.793 100.391 -41.5527 100.391 -48.9746 L 100.391 -63.8672 C 100.391 -71.2402 96.582 -75 89.1602 -75 L 20.9473 -75 C 13.5742 -75 9.76562 -71.2402 9.76562 -63.8672 L 9.76562 -48.9746 C 9.76562 -41.5527 13.5742 -37.793 20.9473 -37.793 Z M 22.9004 -48.1934 C 21.1426 -48.1934 20.1172 -49.1211 20.1172 -50.9766 L 20.1172 -61.8164 C 20.1172 -63.6719 21.1426 -64.5996 22.9004 -64.5996 L 87.2559 -64.5996 C 89.0137 -64.5996 89.9902 -63.6719 89.9902 -61.8164 L 89.9902 -50.9766 C 89.9902 -49.1211 89.0137 -48.1934 87.2559 -48.1934 Z M 20.9473 4.58984 L 89.1602 4.58984 C 96.582 4.58984 100.391 0.830078 100.391 -6.5918 L 100.391 -21.4844 C 100.391 -28.8574 96.582 -32.6172 89.1602 -32.6172 L 20.9473 -32.6172 C 13.5742 -32.6172 9.76562 -28.8574 9.76562 -21.4844 L 9.76562 -6.5918 C 9.76562 0.830078 13.5742 4.58984 20.9473 4.58984 Z M 22.9004 -5.81055 C 21.1426 -5.81055 20.1172 -6.73828 20.1172 -8.59375 L 20.1172 -19.4336 C 20.1172 -21.2891 21.1426 -22.2168 22.9004 -22.2168 L 87.2559 -22.2168 C 89.0137 -22.2168 89.9902 -21.2891 89.9902 -19.4336 L 89.9902 -8.59375 C 89.9902 -6.73828 89.0137 -5.81055 87.2559 -5.81055 Z"/>
  </g>
  <g id="Semibold-S" transform="matrix(1 0 0 1 1989.56 696)">
   <path d="M 20.3613 -37.9883 L 87.0117 -37.9883 C 94.043 -37.9883 97.6562 -41.5039 97.6562 -48.5352 L 97.6562 -62.9395 C 97.6562 -69.9219 94.043 -73.4375 87.0117 -73.4375 L 20.3613 -73.4375 C 13.3301 -73.4375 9.76562 -69.9219 9.76562 -62.9395 L 9.76562 -48.5352 C 9.76562 -41.5039 13.3301 -37.9883 20.3613 -37.9883 Z M 21.7773 -46.9727 C 19.873 -46.9727 18.75 -48.0469 18.75 -50.0977 L 18.75 -61.377 C 18.75 -63.4277 19.873 -64.4531 21.7773 -64.4531 L 85.5957 -64.4531 C 87.5488 -64.4531 88.623 -63.4277 88.623 -61.377 L 88.623 -50.0977 C 88.623 -48.0469 87.5488 -46.9727 85.5957 -46.9727 Z M 20.3613 3.02734 L 87.0117 3.02734 C 94.043 3.02734 97.6562 -0.488281 97.6562 -7.51953 L 97.6562 -21.875 C 97.6562 -28.9062 94.043 -32.4219 87.0117 -32.4219 L 20.3613 -32.4219 C 13.3301 -32.4219 9.76562 -28.9062 9.76562 -21.875 L 9.76562 -7.51953 C 9.76562 -0.488281 13.3301 3.02734 20.3613 3.02734 Z M 21.7773 -5.95703 C 19.873 -5.95703 18.75 -7.03125 18.75 -9.0332 L 18.75 -20.3125 C 18.75 -22.4121 19.873 -23.4375 21.7773 -23.4375 L 85.5957 -23.4375 C 87.5488 -23.4375 88.623 -22.4121 88.623 -20.3125 L 88.623 -9.0332 C 88.623 -7.03125 87.5488 -5.95703 85.5957 -5.95703 Z"/>
  </g>
  <g id="Medium-S" transform="matrix(1 0 0 1 1693.89 696)">
   <path d="M 19.9219 -38.1348 L 85.3516 -38.1348 C 92.1387 -38.1348 95.5566 -41.5039 95.5566 -48.2422 L 95.5566 -62.207 C 95.5566 -68.9453 92.1387 -72.3145 85.3516 -72.3145 L 19.9219 -72.3145 C 13.1836 -72.3145 9.76562 -68.9453 9.76562 -62.207 L 9.76562 -48.2422 C 9.76562 -41.5039 13.1836 -38.1348 19.9219 -38.1348 Z M 20.9473 -46.0449 C 18.8965 -46.0449 17.7246 -47.2168 17.7246 -49.4141 L 17.7246 -61.0352 C 17.7246 -63.2324 18.8965 -64.3555 20.9473 -64.3555 L 84.3262 -64.3555 C 86.4258 -64.3555 87.5977 -63.2324 87.5977 -61.0352 L 87.5977 -49.4141 C 87.5977 -47.2168 86.4258 -46.0449 84.3262 -46.0449 Z M 19.9219 1.9043 L 85.3516 1.9043 C 92.1387 1.9043 95.5566 -1.46484 95.5566 -8.20312 L 95.5566 -22.2168 C 95.5566 -28.9062 92.1387 -32.2754 85.3516 -32.2754 L 19.9219 -32.2754 C 13.1836 -32.2754 9.76562 -28.9062 9.76562 -22.2168 L 9.76562 -8.20312 C 9.76562 -1.46484 13.1836 1.9043 19.9219 1.9043 Z M 20.9473 -6.05469 C 18.8965 -6.05469 17.7246 -7.17773 17.7246 -9.375 L 17.7246 -20.9961 C 17.7246 -23.2422 18.8965 -24.3164 20.9473 -24.3164 L 84.3262 -24.3164 C 86.4258 -24.3164 87.5977 -23.2422 87.5977 -20.9961 L 87.5977 -9.375 C 87.5977 -7.17773 86.4258 -6.05469 84.3262 -6.05469 Z"/>
  </g>
  <g id="Regular-S" transform="matrix(1 0 0 1 1398.55 696)">
   <path d="M 19.3848 -38.2812 L 83.252 -38.2812 C 89.6484 -38.2812 92.8223 -41.4551 92.8223 -47.8027 L 92.8223 -61.3281 C 92.8223 -67.627 89.6484 -70.8008 83.252 -70.8008 L 19.3848 -70.8008 C 12.9395 -70.8008 9.76562 -67.627 9.76562 -61.3281 L 9.76562 -47.8027 C 9.76562 -41.4551 12.9395 -38.2812 19.3848 -38.2812 Z M 19.873 -44.873 C 17.627 -44.873 16.3574 -46.1426 16.3574 -48.5352 L 16.3574 -60.5469 C 16.3574 -62.9883 17.627 -64.209 19.873 -64.209 L 82.666 -64.209 C 84.9609 -64.209 86.2793 -62.9883 86.2793 -60.5469 L 86.2793 -48.5352 C 86.2793 -46.1426 84.9609 -44.873 82.666 -44.873 Z M 19.3848 0.390625 L 83.252 0.390625 C 89.6484 0.390625 92.8223 -2.73438 92.8223 -9.13086 L 92.8223 -22.6562 C 92.8223 -28.9551 89.6484 -32.0801 83.252 -32.0801 L 19.3848 -32.0801 C 12.9395 -32.0801 9.76562 -28.9551 9.76562 -22.6562 L 9.76562 -9.13086 C 9.76562 -2.73438 12.9395 0.390625 19.3848 0.390625 Z M 19.873 -6.20117 C 17.627 -6.20117 16.3574 -7.4707 16.3574 -9.81445 L 16.3574 -21.875 C 16.3574 -24.3164 17.627 -25.5371 19.873 -25.5371 L 82.666 -25.5371 C 84.9609 -25.5371 86.2793 -24.3164 86.2793 -21.875 L 86.2793 -9.81445 C 86.2793 -7.4707 84.9609 -6.20117 82.666 -6.20117 Z"/>
  </g>
  <g id="Light-S" transform="matrix(1 0 0 1 1102.21 696)">
   <path d="M 17.9199 -38.4277 L 83.9844 -38.4277 C 89.3555 -38.4277 92.0898 -41.0156 92.0898 -46.4844 L 92.0898 -62.0605 C 92.0898 -67.4805 89.3555 -70.1172 83.9844 -70.1172 L 17.9199 -70.1172 C 12.5 -70.1172 9.76562 -67.4805 9.76562 -62.0605 L 9.76562 -46.4844 C 9.76562 -41.0156 12.5 -38.4277 17.9199 -38.4277 Z M 18.3105 -43.5547 C 16.0645 -43.5547 14.8926 -44.6777 14.8926 -47.0215 L 14.8926 -61.5234 C 14.8926 -63.916 16.0645 -64.9902 18.3105 -64.9902 L 83.5449 -64.9902 C 85.8398 -64.9902 87.0117 -63.916 87.0117 -61.5234 L 87.0117 -47.0215 C 87.0117 -44.6777 85.8398 -43.5547 83.5449 -43.5547 Z M 17.9199 -0.292969 L 83.9844 -0.292969 C 89.3555 -0.292969 92.0898 -2.88086 92.0898 -8.34961 L 92.0898 -23.9258 C 92.0898 -29.3457 89.3555 -31.9336 83.9844 -31.9336 L 17.9199 -31.9336 C 12.5 -31.9336 9.76562 -29.3457 9.76562 -23.9258 L 9.76562 -8.34961 C 9.76562 -2.88086 12.5 -0.292969 17.9199 -0.292969 Z M 18.3105 -5.37109 C 16.0645 -5.37109 14.8926 -6.49414 14.8926 -8.83789 L 14.8926 -23.3887 C 14.8926 -25.7324 16.0645 -26.8555 18.3105 -26.8555 L 83.5449 -26.8555 C 85.8398 -26.8555 87.0117 -25.7324 87.0117 -23.3887 L 87.0117 -8.83789 C 87.0117 -6.49414 85.8398 -5.37109 83.5449 -5.37109 Z"/>
  </g>
  <g id="Thin-S" transform="matrix(1 0 0 1 805.958 696)">
   <path d="M 15.9668 -38.5742 L 84.9121 -38.5742 C 89.0137 -38.5742 91.1621 -40.4785 91.1621 -44.7754 L 91.1621 -63.0371 C 91.1621 -67.334 89.0137 -69.2383 84.9121 -69.2383 L 15.9668 -69.2383 C 11.9141 -69.2383 9.76562 -67.334 9.76562 -63.0371 L 9.76562 -44.7754 C 9.76562 -40.4785 11.9141 -38.5742 15.9668 -38.5742 Z M 16.1621 -41.748 C 13.916 -41.748 12.9395 -42.7246 12.9395 -45.0195 L 12.9395 -62.793 C 12.9395 -65.0879 13.916 -66.0156 16.1621 -66.0156 L 84.7168 -66.0156 C 86.9629 -66.0156 87.9395 -65.0879 87.9395 -62.793 L 87.9395 -45.0195 C 87.9395 -42.7246 86.9629 -41.748 84.7168 -41.748 Z M 15.9668 -1.12305 L 84.9121 -1.12305 C 89.0137 -1.12305 91.1621 -3.02734 91.1621 -7.32422 L 91.1621 -25.5859 C 91.1621 -29.834 89.0137 -31.7871 84.9121 -31.7871 L 15.9668 -31.7871 C 11.9141 -31.7871 9.76562 -29.834 9.76562 -25.5859 L 9.76562 -7.32422 C 9.76562 -3.02734 11.9141 -1.12305 15.9668 -1.12305 Z M 16.1621 -4.29688 C 13.916 -4.29688 12.9395 -5.27344 12.9395 -7.56836 L 12.9395 -25.3418 C 12.9395 -27.6367 13.916 -28.5645 16.1621 -28.5645 L 84.7168 -28.5645 C 86.9629 -28.5645 87.9395 -27.6367 87.9395 -25.3418 L 87.9395 -7.56836 C 87.9395 -5.27344 86.9629 -4.29688 84.7168 -4.29688 Z"/>
  </g>
  <g id="Ultralight-S" transform="matrix(1 0 0 1 509.516 696)">
   <path d="M 14.9902 -38.6719 L 85.4492 -38.6719 C 88.8184 -38.6719 90.625 -40.1855 90.625 -43.8477 L 90.625 -63.5742 C 90.625 -67.1875 88.8184 -68.75 85.4492 -68.75 L 14.9902 -68.75 C 11.5723 -68.75 9.76562 -67.1875 9.76562 -63.5742 L 9.76562 -43.8477 C 9.76562 -40.1855 11.5723 -38.6719 14.9902 -38.6719 Z M 15.0879 -40.8203 C 12.8418 -40.8203 11.9629 -41.748 11.9629 -43.9941 L 11.9629 -63.4277 C 11.9629 -65.6738 12.8418 -66.5527 15.0879 -66.5527 L 85.3027 -66.5527 C 87.5488 -66.5527 88.4766 -65.6738 88.4766 -63.4277 L 88.4766 -43.9941 C 88.4766 -41.748 87.5488 -40.8203 85.3027 -40.8203 Z M 14.9902 -1.5625 L 85.4492 -1.5625 C 88.8184 -1.5625 90.625 -3.125 90.625 -6.78711 L 90.625 -26.4648 C 90.625 -30.127 88.8184 -31.6406 85.4492 -31.6406 L 14.9902 -31.6406 C 11.5723 -31.6406 9.76562 -30.127 9.76562 -26.4648 L 9.76562 -6.78711 C 9.76562 -3.125 11.5723 -1.5625 14.9902 -1.5625 Z M 15.0879 -3.75977 C 12.8418 -3.75977 11.9629 -4.63867 11.9629 -6.88477 L 11.9629 -26.3184 C 11.9629 -28.5645 12.8418 -29.4922 15.0879 -29.4922 L 85.3027 -29.4922 C 87.5488 -29.4922 88.4766 -28.5645 88.4766 -26.3184 L 88.4766 -6.88477 C 88.4766 -4.63867 87.5488 -3.75977 85.3027 -3.75977 Z"/>
  </g>
 </g>
</svg>
