<?xml version="1.0" encoding="UTF-8"?>
<!--Generator: Apple Native CoreSVG 129-->
<!DOCTYPE svg
PUBLIC "-//W3C//DTD SVG 1.1//EN"
       "http://www.w3.org/Graphics/SVG/1.1/DTD/svg11.dtd">
<svg version="1.1" xmlns="http://www.w3.org/2000/svg" xmlns:xlink="http://www.w3.org/1999/xlink" width="3300" height="2200">
 <!--glyph: "uni1007CF.medium", point size: 100.000000, font version: "Version 16.0d9e1", template writer version: "8"-->
 <g id="Notes">
  <rect height="2200" id="artboard" style="fill:white;opacity:1" width="3300" x="0" y="0"/>
  <line id="" style="fill:none;stroke:black;opacity:1;stroke-width:0.5;" x1="263" x2="3036" y1="292" y2="292"/>
  <text style="stroke:none;fill:black;font-family:-apple-system,&quot;SF Pro Display&quot;,&quot;SF Pro Text&quot;,Helvetica,sans-serif;font-weight:bold;" transform="matrix(1 0 0 1 263 322)">Weight/Scale Variations</text>
  <text style="stroke:none;fill:black;font-family:-apple-system,&quot;SF Pro Display&quot;,&quot;SF Pro Text&quot;,Helvetica,sans-serif;text-anchor:middle;" transform="matrix(1 0 0 1 559.711 322)">Ultralight</text>
  <text style="stroke:none;fill:black;font-family:-apple-system,&quot;SF Pro Display&quot;,&quot;SF Pro Text&quot;,Helvetica,sans-serif;text-anchor:middle;" transform="matrix(1 0 0 1 856.422 322)">Thin</text>
  <text style="stroke:none;fill:black;font-family:-apple-system,&quot;SF Pro Display&quot;,&quot;SF Pro Text&quot;,Helvetica,sans-serif;text-anchor:middle;" transform="matrix(1 0 0 1 1153.13 322)">Light</text>
  <text style="stroke:none;fill:black;font-family:-apple-system,&quot;SF Pro Display&quot;,&quot;SF Pro Text&quot;,Helvetica,sans-serif;text-anchor:middle;" transform="matrix(1 0 0 1 1449.84 322)">Regular</text>
  <text style="stroke:none;fill:black;font-family:-apple-system,&quot;SF Pro Display&quot;,&quot;SF Pro Text&quot;,Helvetica,sans-serif;text-anchor:middle;" transform="matrix(1 0 0 1 1746.56 322)">Medium</text>
  <text style="stroke:none;fill:black;font-family:-apple-system,&quot;SF Pro Display&quot;,&quot;SF Pro Text&quot;,Helvetica,sans-serif;text-anchor:middle;" transform="matrix(1 0 0 1 2043.27 322)">Semibold</text>
  <text style="stroke:none;fill:black;font-family:-apple-system,&quot;SF Pro Display&quot;,&quot;SF Pro Text&quot;,Helvetica,sans-serif;text-anchor:middle;" transform="matrix(1 0 0 1 2339.98 322)">Bold</text>
  <text style="stroke:none;fill:black;font-family:-apple-system,&quot;SF Pro Display&quot;,&quot;SF Pro Text&quot;,Helvetica,sans-serif;text-anchor:middle;" transform="matrix(1 0 0 1 2636.69 322)">Heavy</text>
  <text style="stroke:none;fill:black;font-family:-apple-system,&quot;SF Pro Display&quot;,&quot;SF Pro Text&quot;,Helvetica,sans-serif;text-anchor:middle;" transform="matrix(1 0 0 1 2933.4 322)">Black</text>
  <line id="" style="fill:none;stroke:black;opacity:1;stroke-width:0.5;" x1="263" x2="3036" y1="1903" y2="1903"/>
  <g id="" transform="matrix(1 0 0 1 263 1933)">
   <path d="M 9.24805 0.830078 C 13.5547 0.830078 17.1387 -2.74414 17.1387 -7.05078 C 17.1387 -11.3574 13.5449 -14.9316 9.23828 -14.9316 C 4.94141 -14.9316 1.36719 -11.3574 1.36719 -7.05078 C 1.36719 -2.74414 4.95117 0.830078 9.24805 0.830078 Z M 9.24805 -0.654297 C 5.70312 -0.654297 2.87109 -3.49609 2.87109 -7.05078 C 2.87109 -10.6055 5.69336 -13.4473 9.23828 -13.4473 C 12.793 -13.4473 15.6348 -10.6055 15.6445 -7.05078 C 15.6543 -3.49609 12.8027 -0.654297 9.24805 -0.654297 Z M 9.22852 -3.62305 C 9.69727 -3.62305 9.9707 -3.93555 9.9707 -4.45312 L 9.9707 -6.31836 L 12.002 -6.31836 C 12.5 -6.31836 12.832 -6.57227 12.832 -7.04102 C 12.832 -7.51953 12.5195 -7.7832 12.002 -7.7832 L 9.9707 -7.7832 L 9.9707 -9.81445 C 9.9707 -10.332 9.69727 -10.6543 9.22852 -10.6543 C 8.75977 -10.6543 8.50586 -10.3125 8.50586 -9.81445 L 8.50586 -7.7832 L 6.49414 -7.7832 C 5.97656 -7.7832 5.64453 -7.51953 5.64453 -7.04102 C 5.64453 -6.57227 5.99609 -6.31836 6.49414 -6.31836 L 8.50586 -6.31836 L 8.50586 -4.45312 C 8.50586 -3.95508 8.75977 -3.62305 9.22852 -3.62305 Z"/>
  </g>
  <g id="" transform="matrix(1 0 0 1 281.506 1933)">
   <path d="M 11.709 2.91016 C 17.1582 2.91016 21.6699 -1.61133 21.6699 -7.05078 C 21.6699 -12.5 17.1484 -17.0117 11.6992 -17.0117 C 6.25977 -17.0117 1.74805 -12.5 1.74805 -7.05078 C 1.74805 -1.61133 6.26953 2.91016 11.709 2.91016 Z M 11.709 1.25 C 7.09961 1.25 3.41797 -2.44141 3.41797 -7.05078 C 3.41797 -11.6602 7.08984 -15.3516 11.6992 -15.3516 C 16.3086 -15.3516 20 -11.6602 20.0098 -7.05078 C 20.0195 -2.44141 16.3184 1.25 11.709 1.25 Z M 11.6797 -2.66602 C 12.207 -2.66602 12.5098 -3.01758 12.5098 -3.59375 L 12.5098 -6.23047 L 15.3223 -6.23047 C 15.8691 -6.23047 16.25 -6.51367 16.25 -7.03125 C 16.25 -7.55859 15.8887 -7.86133 15.3223 -7.86133 L 12.5098 -7.86133 L 12.5098 -10.6836 C 12.5098 -11.25 12.207 -11.6113 11.6797 -11.6113 C 11.1621 -11.6113 10.8789 -11.2305 10.8789 -10.6836 L 10.8789 -7.86133 L 8.07617 -7.86133 C 7.50977 -7.86133 7.13867 -7.55859 7.13867 -7.03125 C 7.13867 -6.51367 7.5293 -6.23047 8.07617 -6.23047 L 10.8789 -6.23047 L 10.8789 -3.59375 C 10.8789 -3.03711 11.1621 -2.66602 11.6797 -2.66602 Z"/>
  </g>
  <g id="" transform="matrix(1 0 0 1 304.924 1933)">
   <path d="M 14.9707 5.66406 C 21.9336 5.66406 27.6953 -0.0976562 27.6953 -7.05078 C 27.6953 -14.0137 21.9238 -19.7754 14.9609 -19.7754 C 8.00781 -19.7754 2.25586 -14.0137 2.25586 -7.05078 C 2.25586 -0.0976562 8.01758 5.66406 14.9707 5.66406 Z M 14.9707 3.84766 C 8.93555 3.84766 4.08203 -1.01562 4.08203 -7.05078 C 4.08203 -13.0957 8.92578 -17.9492 14.9609 -17.9492 C 21.0059 -17.9492 25.8594 -13.0957 25.8691 -7.05078 C 25.8789 -1.01562 21.0156 3.84766 14.9707 3.84766 Z M 14.9414 -1.38672 C 15.5176 -1.38672 15.8594 -1.77734 15.8594 -2.38281 L 15.8594 -6.13281 L 19.7754 -6.13281 C 20.3711 -6.13281 20.7812 -6.46484 20.7812 -7.02148 C 20.7812 -7.59766 20.3906 -7.93945 19.7754 -7.93945 L 15.8594 -7.93945 L 15.8594 -11.8652 C 15.8594 -12.4805 15.5176 -12.8711 14.9414 -12.8711 C 14.375 -12.8711 14.0527 -12.4609 14.0527 -11.8652 L 14.0527 -7.93945 L 10.1465 -7.93945 C 9.53125 -7.93945 9.13086 -7.59766 9.13086 -7.02148 C 9.13086 -6.46484 9.55078 -6.13281 10.1465 -6.13281 L 14.0527 -6.13281 L 14.0527 -2.38281 C 14.0527 -1.79688 14.375 -1.38672 14.9414 -1.38672 Z"/>
  </g>
  <text style="stroke:none;fill:black;font-family:-apple-system,&quot;SF Pro Display&quot;,&quot;SF Pro Text&quot;,Helvetica,sans-serif;font-weight:bold;" transform="matrix(1 0 0 1 263 1953)">Design Variations</text>
  <text style="stroke:none;fill:black;font-family:-apple-system,&quot;SF Pro Display&quot;,&quot;SF Pro Text&quot;,Helvetica,sans-serif;" transform="matrix(1 0 0 1 263 1971)">Symbols are supported in up to nine weights and three scales.</text>
  <text style="stroke:none;fill:black;font-family:-apple-system,&quot;SF Pro Display&quot;,&quot;SF Pro Text&quot;,Helvetica,sans-serif;" transform="matrix(1 0 0 1 263 1989)">For optimal layout with text and other symbols, vertically align</text>
  <text style="stroke:none;fill:black;font-family:-apple-system,&quot;SF Pro Display&quot;,&quot;SF Pro Text&quot;,Helvetica,sans-serif;" transform="matrix(1 0 0 1 263 2007)">symbols with the adjacent text.</text>
  <line id="" style="fill:none;stroke:#00AEEF;stroke-width:0.5;opacity:1.0;" x1="776" x2="776" y1="1919" y2="1933"/>
  <g id="" transform="matrix(1 0 0 1 776 1933)">
   <path d="M 3.31055 0.126953 C 3.82812 0.126953 4.08203 -0.0683594 4.26758 -0.605469 L 5.52734 -4.0625 L 11.2891 -4.0625 L 12.5488 -0.605469 C 12.7344 -0.0683594 12.9883 0.126953 13.4961 0.126953 C 14.0137 0.126953 14.3457 -0.185547 14.3457 -0.673828 C 14.3457 -0.839844 14.3164 -0.986328 14.2383 -1.20117 L 9.6582 -13.3887 C 9.43359 -13.9941 9.0332 -14.2871 8.4082 -14.2871 C 7.80273 -14.2871 7.39258 -13.9941 7.17773 -13.3984 L 2.59766 -1.19141 C 2.51953 -0.976562 2.49023 -0.830078 2.49023 -0.664062 C 2.49023 -0.175781 2.80273 0.126953 3.31055 0.126953 Z M 6.00586 -5.53711 L 8.37891 -12.1094 L 8.42773 -12.1094 L 10.8008 -5.53711 Z"/>
  </g>
  <line id="" style="fill:none;stroke:#00AEEF;stroke-width:0.5;opacity:1.0;" x1="792.836" x2="792.836" y1="1919" y2="1933"/>
  <text style="stroke:none;fill:black;font-family:-apple-system,&quot;SF Pro Display&quot;,&quot;SF Pro Text&quot;,Helvetica,sans-serif;font-weight:bold;" transform="matrix(1 0 0 1 776 1953)">Margins</text>
  <text style="stroke:none;fill:black;font-family:-apple-system,&quot;SF Pro Display&quot;,&quot;SF Pro Text&quot;,Helvetica,sans-serif;" transform="matrix(1 0 0 1 776 1971)">Leading and trailing margins on the left and right side of each symbol</text>
  <text style="stroke:none;fill:black;font-family:-apple-system,&quot;SF Pro Display&quot;,&quot;SF Pro Text&quot;,Helvetica,sans-serif;" transform="matrix(1 0 0 1 776 1989)">can be adjusted by modifying the x-location of the margin guidelines.</text>
  <text style="stroke:none;fill:black;font-family:-apple-system,&quot;SF Pro Display&quot;,&quot;SF Pro Text&quot;,Helvetica,sans-serif;" transform="matrix(1 0 0 1 776 2007)">Modifications are automatically applied proportionally to all</text>
  <text style="stroke:none;fill:black;font-family:-apple-system,&quot;SF Pro Display&quot;,&quot;SF Pro Text&quot;,Helvetica,sans-serif;" transform="matrix(1 0 0 1 776 2025)">scales and weights.</text>
  <g id="" transform="matrix(1 0 0 1 1289 1933)">
   <path d="M 2.8418 1.86523 L 4.54102 3.57422 C 5.40039 4.44336 6.38672 4.38477 7.31445 3.35938 L 17.4902 -7.85156 C 17.7539 -7.76367 18.0273 -7.7832 18.3398 -7.8418 L 19.4043 -8.03711 L 20.0684 -7.36328 L 20.0293 -6.80664 C 19.9902 -6.30859 20.1172 -5.92773 20.6055 -5.44922 L 21.3672 -4.70703 C 21.8457 -4.22852 22.4609 -4.19922 22.9297 -4.66797 L 25.8398 -7.58789 C 26.3086 -8.05664 26.2891 -8.65234 25.8105 -9.13086 L 25.0391 -9.89258 C 24.5605 -10.3711 24.1895 -10.5273 23.7109 -10.4883 L 23.1348 -10.4395 L 22.4902 -11.0742 L 22.7344 -12.1973 C 22.8613 -12.7637 22.7051 -13.2031 22.1191 -13.7891 L 19.9219 -15.9766 C 16.582 -19.2969 12.1484 -19.2188 9.25781 -16.3281 C 8.83789 -15.918 8.80859 -15.3418 9.04297 -14.9512 C 9.27734 -14.5898 9.73633 -14.3555 10.3809 -14.5215 C 11.8457 -14.8633 13.3691 -14.9219 14.7949 -13.9844 L 14.209 -12.5293 C 14.0137 -12.0508 13.9844 -11.6504 14.1113 -11.2891 L 3.04688 -0.898438 C 2.06055 0.0195312 1.98242 0.996094 2.8418 1.86523 Z M 10.752 -15.957 C 13.1836 -17.7344 16.4746 -17.4316 18.7012 -15.2051 L 21.1328 -12.793 C 21.3672 -12.5586 21.4062 -12.373 21.3379 -12.0312 L 21.0156 -10.5469 L 22.5195 -9.0625 L 23.5059 -9.12109 C 23.7598 -9.13086 23.8379 -9.11133 24.0332 -8.91602 L 24.6094 -8.33984 L 22.168 -5.89844 L 21.5918 -6.47461 C 21.3965 -6.66992 21.3672 -6.74805 21.377 -7.01172 L 21.4453 -7.98828 L 19.9512 -9.47266 L 18.4277 -9.21875 C 18.1055 -9.15039 17.959 -9.17969 17.7148 -9.41406 L 15.7129 -11.416 C 15.459 -11.6504 15.4297 -11.8164 15.5859 -12.1875 L 16.4648 -14.2773 C 14.9023 -15.7324 12.8711 -16.3574 10.8398 -15.7617 C 10.6836 -15.7227 10.625 -15.8496 10.752 -15.957 Z M 5.27344 2.30469 L 4.10156 1.14258 C 3.63281 0.683594 3.74023 0.341797 4.14062 -0.0195312 L 14.9512 -10.1953 L 16.416 -8.71094 L 6.42578 2.27539 C 6.07422 2.67578 5.74219 2.77344 5.27344 2.30469 Z"/>
  </g>
  <text style="stroke:none;fill:black;font-family:-apple-system,&quot;SF Pro Display&quot;,&quot;SF Pro Text&quot;,Helvetica,sans-serif;font-weight:bold;" transform="matrix(1 0 0 1 1289 1953)">Exporting</text>
  <text style="stroke:none;fill:black;font-family:-apple-system,&quot;SF Pro Display&quot;,&quot;SF Pro Text&quot;,Helvetica,sans-serif;" transform="matrix(1 0 0 1 1289 1971)">Symbols should be outlined when exporting to ensure the</text>
  <text style="stroke:none;fill:black;font-family:-apple-system,&quot;SF Pro Display&quot;,&quot;SF Pro Text&quot;,Helvetica,sans-serif;" transform="matrix(1 0 0 1 1289 1989)">design is preserved when submitting to Xcode.</text>
  <text id="template-version" style="stroke:none;fill:black;font-family:-apple-system,&quot;SF Pro Display&quot;,&quot;SF Pro Text&quot;,Helvetica,sans-serif;text-anchor:end;" transform="matrix(1 0 0 1 3036 1933)">Template v.2.0</text>
  <text style="stroke:none;fill:black;font-family:-apple-system,&quot;SF Pro Display&quot;,&quot;SF Pro Text&quot;,Helvetica,sans-serif;text-anchor:end;" transform="matrix(1 0 0 1 3036 1951)">Requires Xcode 12 or greater</text>
  <text style="stroke:none;fill:black;font-family:-apple-system,&quot;SF Pro Display&quot;,&quot;SF Pro Text&quot;,Helvetica,sans-serif;text-anchor:end;" transform="matrix(1 0 0 1 3036 1969)">Generated from rectangle.portrait</text>
  <text style="stroke:none;fill:black;font-family:-apple-system,&quot;SF Pro Display&quot;,&quot;SF Pro Text&quot;,Helvetica,sans-serif;text-anchor:end;" transform="matrix(1 0 0 1 3036 1987)">Typeset at 100 points</text>
  <text style="stroke:none;fill:black;font-family:-apple-system,&quot;SF Pro Display&quot;,&quot;SF Pro Text&quot;,Helvetica,sans-serif;" transform="matrix(1 0 0 1 263 726)">Small</text>
  <text style="stroke:none;fill:black;font-family:-apple-system,&quot;SF Pro Display&quot;,&quot;SF Pro Text&quot;,Helvetica,sans-serif;" transform="matrix(1 0 0 1 263 1156)">Medium</text>
  <text style="stroke:none;fill:black;font-family:-apple-system,&quot;SF Pro Display&quot;,&quot;SF Pro Text&quot;,Helvetica,sans-serif;" transform="matrix(1 0 0 1 263 1586)">Large</text>
 </g>
 <g id="Guides">
  <g id="H-reference" style="fill:#27AAE1;stroke:none;" transform="matrix(1 0 0 1 339 696)">
   <path d="M 0.976562 0 L 3.66211 0 L 12.9883 -24.4629 L 45.7031 -24.4629 L 55.0781 0 L 57.7148 0 L 30.6152 -70.459 L 28.125 -70.459 Z M 29.2969 -67.1387 L 29.3945 -67.1387 L 44.873 -26.709 L 13.8672 -26.709 Z"/>
  </g>
  <line id="Baseline-S" style="fill:none;stroke:#27AAE1;opacity:1;stroke-width:0.5;" x1="263" x2="3036" y1="696" y2="696"/>
  <line id="Capline-S" style="fill:none;stroke:#27AAE1;opacity:1;stroke-width:0.5;" x1="263" x2="3036" y1="625.541" y2="625.541"/>
  <g id="H-reference" style="fill:#27AAE1;stroke:none;" transform="matrix(1 0 0 1 339 1126)">
   <path d="M 0.976562 0 L 3.66211 0 L 12.9883 -24.4629 L 45.7031 -24.4629 L 55.0781 0 L 57.7148 0 L 30.6152 -70.459 L 28.125 -70.459 Z M 29.2969 -67.1387 L 29.3945 -67.1387 L 44.873 -26.709 L 13.8672 -26.709 Z"/>
  </g>
  <line id="Baseline-M" style="fill:none;stroke:#27AAE1;opacity:1;stroke-width:0.5;" x1="263" x2="3036" y1="1126" y2="1126"/>
  <line id="Capline-M" style="fill:none;stroke:#27AAE1;opacity:1;stroke-width:0.5;" x1="263" x2="3036" y1="1055.54" y2="1055.54"/>
  <g id="H-reference" style="fill:#27AAE1;stroke:none;" transform="matrix(1 0 0 1 339 1556)">
   <path d="M 0.976562 0 L 3.66211 0 L 12.9883 -24.4629 L 45.7031 -24.4629 L 55.0781 0 L 57.7148 0 L 30.6152 -70.459 L 28.125 -70.459 Z M 29.2969 -67.1387 L 29.3945 -67.1387 L 44.873 -26.709 L 13.8672 -26.709 Z"/>
  </g>
  <line id="Baseline-L" style="fill:none;stroke:#27AAE1;opacity:1;stroke-width:0.5;" x1="263" x2="3036" y1="1556" y2="1556"/>
  <line id="Capline-L" style="fill:none;stroke:#27AAE1;opacity:1;stroke-width:0.5;" x1="263" x2="3036" y1="1485.54" y2="1485.54"/>
  <line id="left-margin" style="fill:none;stroke:#00AEEF;stroke-width:0.5;opacity:1.0;" x1="1396.33" x2="1396.33" y1="1030.79" y2="1150.12"/>
  <line id="right-margin" style="fill:none;stroke:#00AEEF;stroke-width:0.5;opacity:1.0;" x1="1503.36" x2="1503.36" y1="1030.79" y2="1150.12"/>
 </g>
 <g id="Symbols">
  <g id="Black-L" transform="matrix(1 0 0 1 2859.65 1556)">
   <path d="M 16.0645 11.3281 C 16.0645 26.5625 24.707 35.2539 39.8926 35.2539 L 107.617 35.2539 C 122.803 35.2539 131.445 26.5625 131.445 11.3281 L 131.445 -81.7383 C 131.445 -96.9727 122.803 -105.664 107.617 -105.664 L 39.8926 -105.664 C 24.707 -105.664 16.0645 -96.9727 16.0645 -81.7383 Z M 36.3281 8.59375 L 36.3281 -79.0039 C 36.3281 -83.252 38.1836 -85.4004 42.7246 -85.4004 L 104.785 -85.4004 C 109.326 -85.4004 111.23 -83.252 111.23 -79.0039 L 111.23 8.59375 C 111.23 12.8418 109.326 14.9902 104.785 14.9902 L 42.7246 14.9902 C 38.1836 14.9902 36.3281 12.8418 36.3281 8.59375 Z"/>
  </g>
  <g id="Heavy-L" transform="matrix(1 0 0 1 2564.18 1556)">
   <path d="M 16.0645 11.7188 C 16.0645 26.3672 24.1211 34.4727 38.7207 34.4727 L 106.348 34.4727 C 120.898 34.4727 128.955 26.3672 128.955 11.7188 L 128.955 -82.1777 C 128.955 -96.7773 120.898 -104.932 106.348 -104.932 L 38.7207 -104.932 C 24.1211 -104.932 16.0645 -96.7773 16.0645 -82.1777 Z M 33.5938 9.61914 L 33.5938 -80.0293 C 33.5938 -84.8633 35.8887 -87.4023 41.0156 -87.4023 L 104.053 -87.4023 C 109.18 -87.4023 111.475 -84.8633 111.475 -80.0293 L 111.475 9.61914 C 111.475 14.4531 109.18 16.9922 104.053 16.9922 L 41.0156 16.9922 C 35.8887 16.9922 33.5938 14.4531 33.5938 9.61914 Z"/>
  </g>
  <g id="Bold-L" transform="matrix(1 0 0 1 2268.86 1556)">
   <path d="M 16.0645 12.207 C 16.0645 26.123 23.5352 33.6426 37.4023 33.6426 L 104.883 33.6426 C 118.701 33.6426 126.172 26.123 126.172 12.207 L 126.172 -82.6172 C 126.172 -96.5332 118.701 -104.053 104.883 -104.053 L 37.4023 -104.053 C 23.5352 -104.053 16.0645 -96.5332 16.0645 -82.6172 Z M 30.5176 10.7422 L 30.5176 -81.1523 C 30.5176 -86.6699 33.252 -89.6484 39.0625 -89.6484 L 103.223 -89.6484 C 108.984 -89.6484 111.719 -86.6699 111.719 -81.1523 L 111.719 10.7422 C 111.719 16.2598 108.984 19.1895 103.223 19.1895 L 39.0625 19.1895 C 33.252 19.1895 30.5176 16.2598 30.5176 10.7422 Z"/>
  </g>
  <g id="Semibold-L" transform="matrix(1 0 0 1 1973.1 1556)">
   <path d="M 16.0645 12.5 C 16.0645 25.9766 23.0957 33.0566 36.4746 33.0566 L 103.857 33.0566 C 117.188 33.0566 124.268 25.9766 124.268 12.5 L 124.268 -82.9102 C 124.268 -96.3867 117.188 -103.516 103.857 -103.516 L 36.4746 -103.516 C 23.0957 -103.516 16.0645 -96.3867 16.0645 -82.9102 Z M 28.418 11.5234 L 28.418 -81.9336 C 28.418 -87.9395 31.4453 -91.1621 37.6953 -91.1621 L 102.637 -91.1621 C 108.838 -91.1621 111.914 -87.9395 111.914 -81.9336 L 111.914 11.5234 C 111.914 17.5293 108.838 20.752 102.637 20.752 L 37.6953 20.752 C 31.4453 20.752 28.418 17.5293 28.418 11.5234 Z"/>
  </g>
  <g id="Medium-L" transform="matrix(1 0 0 1 1677.12 1556)">
   <path d="M 16.0645 12.7441 C 16.0645 25.8789 22.8027 32.666 35.791 32.666 L 103.076 32.666 C 116.064 32.666 122.803 25.8789 122.803 12.7441 L 122.803 -83.1543 C 122.803 -96.2402 116.064 -103.076 103.076 -103.076 L 35.791 -103.076 C 22.8027 -103.076 16.0645 -96.2402 16.0645 -83.1543 Z M 26.8066 12.1094 L 26.8066 -82.5684 C 26.8066 -88.8672 30.127 -92.334 36.6699 -92.334 L 102.197 -92.334 C 108.74 -92.334 112.061 -88.8672 112.061 -82.5684 L 112.061 12.1094 C 112.061 18.457 108.74 21.9238 102.197 21.9238 L 36.6699 21.9238 C 30.127 21.9238 26.8066 18.457 26.8066 12.1094 Z"/>
  </g>
  <g id="Regular-L" transform="matrix(1 0 0 1 1381.36 1556)">
   <path d="M 16.0645 13.0859 C 16.0645 25.6836 22.3633 32.0801 34.8633 32.0801 L 102.1 32.0801 C 114.6 32.0801 120.898 25.6836 120.898 13.0859 L 120.898 -83.4961 C 120.898 -96.0938 114.6 -102.49 102.1 -102.49 L 34.8633 -102.49 C 22.3633 -102.49 16.0645 -96.0938 16.0645 -83.4961 Z M 24.707 12.8906 L 24.707 -83.3008 C 24.707 -90.1367 28.3203 -93.8477 35.3516 -93.8477 L 101.611 -93.8477 C 108.643 -93.8477 112.256 -90.1367 112.256 -83.3008 L 112.256 12.8906 C 112.256 19.7266 108.643 23.4375 101.611 23.4375 L 35.3516 23.4375 C 28.3203 23.4375 24.707 19.7266 24.707 12.8906 Z"/>
  </g>
  <g id="Light-L" transform="matrix(1 0 0 1 1085.43 1556)">
   <path d="M 16.0645 13.7695 C 16.0645 25.6836 22.1191 31.7871 33.9355 31.7871 L 101.514 31.7871 C 113.281 31.7871 119.336 25.6836 119.336 13.7695 L 119.336 -84.1309 C 119.336 -95.9961 113.281 -102.1 101.514 -102.1 L 33.9355 -102.1 C 22.1191 -102.1 16.0645 -95.9961 16.0645 -84.1309 Z M 22.7051 13.623 L 22.7051 -83.9844 C 22.7051 -91.4551 26.6113 -95.5078 34.2773 -95.5078 L 101.172 -95.5078 C 108.789 -95.5078 112.744 -91.4551 112.744 -83.9844 L 112.744 13.623 C 112.744 21.1426 108.789 25.1465 101.172 25.1465 L 34.2773 25.1465 C 26.6113 25.1465 22.7051 21.1426 22.7051 13.623 Z"/>
  </g>
  <g id="Thin-L" transform="matrix(1 0 0 1 789.747 1556)">
   <path d="M 16.0645 14.7461 C 16.0645 25.6348 21.7773 31.3477 32.666 31.3477 L 100.732 31.3477 C 111.572 31.3477 117.285 25.6348 117.285 14.7461 L 117.285 -84.9609 C 117.285 -95.8496 111.572 -101.611 100.732 -101.611 L 32.666 -101.611 C 21.7773 -101.611 16.0645 -95.8496 16.0645 -84.9609 Z M 19.9707 14.5996 L 19.9707 -84.8145 C 19.9707 -93.2617 24.3652 -97.6562 32.8613 -97.6562 L 100.537 -97.6562 C 108.984 -97.6562 113.379 -93.2617 113.379 -84.8145 L 113.379 14.5996 C 113.379 22.998 108.984 27.4414 100.537 27.4414 L 32.8613 27.4414 C 24.3652 27.4414 19.9707 22.998 19.9707 14.5996 Z"/>
  </g>
  <g id="Ultralight-L" transform="matrix(1 0 0 1 493.549 1556)">
   <path d="M 16.0645 15.2344 C 16.0645 25.5859 21.6309 31.1523 31.9824 31.1523 L 100.293 31.1523 C 110.693 31.1523 116.26 25.5859 116.26 15.2344 L 116.26 -85.4004 C 116.26 -95.8008 110.693 -101.318 100.293 -101.318 L 31.9824 -101.318 C 21.6309 -101.318 16.0645 -95.8008 16.0645 -85.4004 Z M 18.6035 15.0879 L 18.6035 -85.2539 C 18.6035 -94.1895 23.2422 -98.7793 32.1289 -98.7793 L 100.195 -98.7793 C 109.082 -98.7793 113.672 -94.1895 113.672 -85.2539 L 113.672 15.0879 C 113.672 23.9746 109.082 28.5645 100.195 28.5645 L 32.1289 28.5645 C 23.2422 28.5645 18.6035 23.9746 18.6035 15.0879 Z"/>
  </g>
  <g id="Black-M" transform="matrix(1 0 0 1 2874.98 1126)">
   <path d="M 12.4512 0.683594 C 12.4512 12.9395 19.7266 20.2148 31.9824 20.2148 L 84.8633 20.2148 C 97.1191 20.2148 104.395 12.9395 104.395 0.683594 L 104.395 -71.0938 C 104.395 -83.3496 97.1191 -90.625 84.8633 -90.625 L 31.9824 -90.625 C 19.7266 -90.625 12.4512 -83.3496 12.4512 -71.0938 Z M 30.7617 -2.24609 L 30.7617 -68.1641 C 30.7617 -70.9961 31.8359 -72.3145 34.9121 -72.3145 L 81.9336 -72.3145 C 85.0098 -72.3145 86.1328 -70.9961 86.1328 -68.1641 L 86.1328 -2.24609 C 86.1328 0.585938 85.0098 1.9043 81.9336 1.9043 L 34.9121 1.9043 C 31.8359 1.9043 30.7617 0.585938 30.7617 -2.24609 Z"/>
  </g>
  <g id="Heavy-M" transform="matrix(1 0 0 1 2579.41 1126)">
   <path d="M 12.4512 0.927734 C 12.4512 12.7441 19.1895 19.4824 30.957 19.4824 L 83.5938 19.4824 C 95.3125 19.4824 102.1 12.7441 102.1 0.927734 L 102.1 -71.3379 C 102.1 -83.1055 95.3125 -89.8926 83.5938 -89.8926 L 30.957 -89.8926 C 19.1895 -89.8926 12.4512 -83.1055 12.4512 -71.3379 Z M 28.2715 -1.31836 L 28.2715 -69.0918 C 28.2715 -72.4121 29.7363 -74.0723 33.3008 -74.0723 L 81.25 -74.0723 C 84.8145 -74.0723 86.2793 -72.4121 86.2793 -69.0918 L 86.2793 -1.31836 C 86.2793 2.00195 84.8145 3.66211 81.25 3.66211 L 33.3008 3.66211 C 29.7363 3.66211 28.2715 2.00195 28.2715 -1.31836 Z"/>
  </g>
  <g id="Bold-M" transform="matrix(1 0 0 1 2284 1126)">
   <path d="M 12.4512 1.2207 C 12.4512 12.5 18.6035 18.6523 29.7852 18.6523 L 82.1777 18.6523 C 93.3105 18.6523 99.5117 12.5 99.5117 1.2207 L 99.5117 -71.6797 C 99.5117 -82.8613 93.3105 -89.1113 82.1777 -89.1113 L 29.7852 -89.1113 C 18.6035 -89.1113 12.4512 -82.8613 12.4512 -71.6797 Z M 25.5371 -0.292969 L 25.5371 -70.1172 C 25.5371 -73.9746 27.3926 -76.0254 31.4453 -76.0254 L 80.4688 -76.0254 C 84.5703 -76.0254 86.4258 -73.9746 86.4258 -70.1172 L 86.4258 -0.292969 C 86.4258 3.56445 84.5703 5.56641 80.4688 5.56641 L 31.4453 5.56641 C 27.3926 5.56641 25.5371 3.56445 25.5371 -0.292969 Z"/>
  </g>
  <g id="Semibold-M" transform="matrix(1 0 0 1 1988.19 1126)">
   <path d="M 12.4512 1.41602 C 12.4512 12.3047 18.2129 18.1152 29.0039 18.1152 L 81.1523 18.1152 C 91.9434 18.1152 97.7051 12.3047 97.7051 1.41602 L 97.7051 -71.875 C 97.7051 -82.7148 91.9434 -88.5254 81.1523 -88.5254 L 29.0039 -88.5254 C 18.2129 -88.5254 12.4512 -82.7148 12.4512 -71.875 Z M 23.6328 0.439453 L 23.6328 -70.8496 C 23.6328 -75.0977 25.7324 -77.3438 30.1758 -77.3438 L 79.9805 -77.3438 C 84.375 -77.3438 86.5234 -75.0977 86.5234 -70.8496 L 86.5234 0.439453 C 86.5234 4.63867 84.375 6.93359 79.9805 6.93359 L 30.1758 6.93359 C 25.7324 6.93359 23.6328 4.63867 23.6328 0.439453 Z"/>
  </g>
  <g id="Medium-M" transform="matrix(1 0 0 1 1692.16 1126)">
   <path d="M 12.4512 1.61133 C 12.4512 12.1582 17.9199 17.6758 28.3691 17.6758 L 80.4199 17.6758 C 90.918 17.6758 96.3379 12.1582 96.3379 1.61133 L 96.3379 -72.0215 C 96.3379 -82.6172 90.918 -88.1348 80.4199 -88.1348 L 28.3691 -88.1348 C 17.9199 -88.1348 12.4512 -82.6172 12.4512 -72.0215 Z M 22.168 0.976562 L 22.168 -71.4355 C 22.168 -75.9277 24.5117 -78.3691 29.248 -78.3691 L 79.541 -78.3691 C 84.2773 -78.3691 86.6211 -75.9277 86.6211 -71.4355 L 86.6211 0.976562 C 86.6211 5.46875 84.2773 7.91016 79.541 7.91016 L 29.248 7.91016 C 24.5117 7.91016 22.168 5.46875 22.168 0.976562 Z"/>
  </g>
  <g id="Regular-M" transform="matrix(1 0 0 1 1396.33 1126)">
   <path d="M 12.4512 1.80664 C 12.4512 12.0117 17.4805 17.0898 27.5879 17.0898 L 79.4434 17.0898 C 89.5508 17.0898 94.5801 12.0117 94.5801 1.80664 L 94.5801 -72.2656 C 94.5801 -82.4219 89.5508 -87.5977 79.4434 -87.5977 L 27.5879 -87.5977 C 17.4805 -87.5977 12.4512 -82.4219 12.4512 -72.2656 Z M 20.3125 1.66016 L 20.3125 -72.1191 C 20.3125 -77.002 22.9004 -79.7363 27.9785 -79.7363 L 79.0527 -79.7363 C 84.1309 -79.7363 86.7188 -77.002 86.7188 -72.1191 L 86.7188 1.66016 C 86.7188 6.54297 84.1309 9.22852 79.0527 9.22852 L 27.9785 9.22852 C 22.9004 9.22852 20.3125 6.54297 20.3125 1.66016 Z"/>
  </g>
  <g id="Light-M" transform="matrix(1 0 0 1 1100.33 1126)">
   <path d="M 12.4512 2.44141 C 12.4512 11.9629 17.2852 16.8457 26.709 16.8457 L 78.9062 16.8457 C 88.3789 16.8457 93.1641 11.9629 93.1641 2.44141 L 93.1641 -72.8516 C 93.1641 -82.373 88.3789 -87.207 78.9062 -87.207 L 26.709 -87.207 C 17.2852 -87.207 12.4512 -82.373 12.4512 -72.8516 Z M 18.5059 2.29492 L 18.5059 -72.7051 C 18.5059 -78.2227 21.3867 -81.2012 27.0508 -81.2012 L 78.6133 -81.2012 C 84.2285 -81.2012 87.1582 -78.2227 87.1582 -72.7051 L 87.1582 2.29492 C 87.1582 7.8125 84.2285 10.791 78.6133 10.791 L 27.0508 10.791 C 21.3867 10.791 18.5059 7.8125 18.5059 2.29492 Z"/>
  </g>
  <g id="Thin-M" transform="matrix(1 0 0 1 804.518 1126)">
   <path d="M 12.4512 3.27148 C 12.4512 11.9629 16.9434 16.4551 25.5859 16.4551 L 78.2227 16.4551 C 86.8164 16.4551 91.3574 11.9629 91.3574 3.27148 L 91.3574 -73.584 C 91.3574 -82.2266 86.8164 -86.7676 78.2227 -86.7676 L 25.5859 -86.7676 C 16.9434 -86.7676 12.4512 -82.2266 12.4512 -73.584 Z M 16.0645 3.17383 L 16.0645 -73.4863 C 16.0645 -79.834 19.3848 -83.1543 25.7812 -83.1543 L 78.0273 -83.1543 C 84.4238 -83.1543 87.7441 -79.834 87.7441 -73.4863 L 87.7441 3.17383 C 87.7441 9.52148 84.4238 12.8418 78.0273 12.8418 L 25.7812 12.8418 C 19.3848 12.8418 16.0645 9.52148 16.0645 3.17383 Z"/>
  </g>
  <g id="Ultralight-M" transform="matrix(1 0 0 1 508.295 1126)">
   <path d="M 12.4512 3.71094 C 12.4512 11.9141 16.7969 16.2598 25 16.2598 L 77.8809 16.2598 C 86.0352 16.2598 90.3809 11.9141 90.3809 3.71094 L 90.3809 -73.9746 C 90.3809 -82.1777 86.0352 -86.5234 77.8809 -86.5234 L 25 -86.5234 C 16.7969 -86.5234 12.4512 -82.1777 12.4512 -73.9746 Z M 14.8438 3.61328 L 14.8438 -73.877 C 14.8438 -80.6152 18.3594 -84.1309 25.0977 -84.1309 L 77.7344 -84.1309 C 84.5215 -84.1309 87.9883 -80.6152 87.9883 -73.877 L 87.9883 3.61328 C 87.9883 10.3516 84.5215 13.8672 77.7344 13.8672 L 25.0977 13.8672 C 18.3594 13.8672 14.8438 10.3516 14.8438 3.61328 Z"/>
  </g>
  <g id="Black-S" transform="matrix(1 0 0 1 2887.7 696)">
   <path d="M 9.76562 -7.08008 C 9.76562 2.49023 15.4297 8.1543 25 8.1543 L 66.4062 8.1543 C 75.9766 8.1543 81.6406 2.49023 81.6406 -7.08008 L 81.6406 -63.3301 C 81.6406 -72.9004 75.9766 -78.5645 66.4062 -78.5645 L 25 -78.5645 C 15.4297 -78.5645 9.76562 -72.9004 9.76562 -63.3301 Z M 23.9258 -9.32617 L 23.9258 -61.084 C 23.9258 -63.3301 24.8047 -64.4043 27.2461 -64.4043 L 64.1602 -64.4043 C 66.6016 -64.4043 67.4805 -63.3301 67.4805 -61.084 L 67.4805 -9.32617 C 67.4805 -7.08008 66.6016 -6.00586 64.1602 -6.00586 L 27.2461 -6.00586 C 24.8047 -6.00586 23.9258 -7.08008 23.9258 -9.32617 Z"/>
  </g>
  <g id="Heavy-S" transform="matrix(1 0 0 1 2591.79 696)">
   <path d="M 9.76562 -6.93359 C 9.76562 2.34375 15.0391 7.61719 24.3164 7.61719 L 65.4785 7.61719 C 74.7559 7.61719 80.0293 2.34375 80.0293 -6.93359 L 80.0293 -63.4766 C 80.0293 -72.7539 74.7559 -78.0762 65.4785 -78.0762 L 24.3164 -78.0762 C 15.0391 -78.0762 9.76562 -72.7539 9.76562 -63.4766 Z M 22.2656 -8.69141 L 22.2656 -61.7188 C 22.2656 -64.3066 23.3887 -65.5762 26.123 -65.5762 L 63.6719 -65.5762 C 66.4062 -65.5762 67.5293 -64.3066 67.5293 -61.7188 L 67.5293 -8.69141 C 67.5293 -6.15234 66.4062 -4.83398 63.6719 -4.83398 L 26.123 -4.83398 C 23.3887 -4.83398 22.2656 -6.15234 22.2656 -8.69141 Z"/>
  </g>
  <g id="Bold-S" transform="matrix(1 0 0 1 2295.98 696)">
   <path d="M 9.76562 -6.78711 C 9.76562 2.14844 14.6484 7.03125 23.5352 7.03125 L 64.4531 7.03125 C 73.3398 7.03125 78.2227 2.14844 78.2227 -6.78711 L 78.2227 -63.623 C 78.2227 -72.5586 73.3398 -77.4902 64.4531 -77.4902 L 23.5352 -77.4902 C 14.6484 -77.4902 9.76562 -72.5586 9.76562 -63.623 Z M 20.3613 -7.95898 L 20.3613 -62.4512 C 20.3613 -65.332 21.7773 -66.8945 24.8047 -66.8945 L 63.1348 -66.8945 C 66.2109 -66.8945 67.627 -65.332 67.627 -62.4512 L 67.627 -7.95898 C 67.627 -5.07812 66.2109 -3.56445 63.1348 -3.56445 L 24.8047 -3.56445 C 21.7773 -3.56445 20.3613 -5.07812 20.3613 -7.95898 Z"/>
  </g>
  <g id="Semibold-S" transform="matrix(1 0 0 1 1999.91 696)">
   <path d="M 9.76562 -6.68945 C 9.76562 2.00195 14.3555 6.64062 22.998 6.64062 L 63.7695 6.64062 C 72.4121 6.64062 76.9531 2.00195 76.9531 -6.68945 L 76.9531 -63.7695 C 76.9531 -72.4609 72.4121 -77.0996 63.7695 -77.0996 L 22.998 -77.0996 C 14.3555 -77.0996 9.76562 -72.4609 9.76562 -63.7695 Z M 19.0918 -7.4707 L 19.0918 -62.9883 C 19.0918 -66.0645 20.6543 -67.7734 23.9258 -67.7734 L 62.793 -67.7734 C 66.0645 -67.7734 67.6758 -66.0645 67.6758 -62.9883 L 67.6758 -7.4707 C 67.6758 -4.39453 66.0645 -2.68555 62.793 -2.68555 L 23.9258 -2.68555 C 20.6543 -2.68555 19.0918 -4.39453 19.0918 -7.4707 Z"/>
  </g>
  <g id="Medium-S" transform="matrix(1 0 0 1 1703.66 696)">
   <path d="M 9.76562 -6.64062 C 9.76562 1.9043 14.1113 6.29883 22.5586 6.29883 L 63.2324 6.29883 C 71.6797 6.29883 76.0254 1.9043 76.0254 -6.64062 L 76.0254 -63.8672 C 76.0254 -72.3633 71.6797 -76.8066 63.2324 -76.8066 L 22.5586 -76.8066 C 14.1113 -76.8066 9.76562 -72.3633 9.76562 -63.8672 Z M 18.0664 -7.12891 L 18.0664 -63.3789 C 18.0664 -66.6504 19.8242 -68.457 23.291 -68.457 L 62.5 -68.457 C 65.9668 -68.457 67.6758 -66.6504 67.6758 -63.3789 L 67.6758 -7.12891 C 67.6758 -3.85742 65.9668 -2.00195 62.5 -2.00195 L 23.291 -2.00195 C 19.8242 -2.00195 18.0664 -3.85742 18.0664 -7.12891 Z"/>
  </g>
  <g id="Regular-S" transform="matrix(1 0 0 1 1407.56 696)">
   <path d="M 9.76562 -6.54297 C 9.76562 1.80664 13.8184 5.9082 22.0215 5.9082 L 62.5 5.9082 C 70.7031 5.9082 74.8047 1.80664 74.8047 -6.54297 L 74.8047 -63.9648 C 74.8047 -72.2656 70.7031 -76.416 62.5 -76.416 L 22.0215 -76.416 C 13.8184 -76.416 9.76562 -72.2656 9.76562 -63.9648 Z M 16.7969 -6.64062 L 16.7969 -63.8672 C 16.7969 -67.3828 18.7012 -69.3848 22.4121 -69.3848 L 62.1582 -69.3848 C 65.8203 -69.3848 67.7246 -67.3828 67.7246 -63.8672 L 67.7246 -6.64062 C 67.7246 -3.125 65.8203 -1.12305 62.1582 -1.12305 L 22.4121 -1.12305 C 18.7012 -1.12305 16.7969 -3.125 16.7969 -6.64062 Z"/>
  </g>
  <g id="Light-S" transform="matrix(1 0 0 1 1111.48 696)">
   <path d="M 9.76562 -5.95703 C 9.76562 1.75781 13.623 5.66406 21.2891 5.66406 L 62.0605 5.66406 C 69.6777 5.66406 73.5352 1.75781 73.5352 -5.95703 L 73.5352 -64.4531 C 73.5352 -72.168 69.6777 -76.123 62.0605 -76.123 L 21.2891 -76.123 C 13.623 -76.123 9.76562 -72.168 9.76562 -64.4531 Z M 15.1855 -6.05469 L 15.1855 -64.3555 C 15.1855 -68.457 17.3828 -70.6543 21.582 -70.6543 L 61.7676 -70.6543 C 65.9668 -70.6543 68.1152 -68.457 68.1152 -64.3555 L 68.1152 -6.05469 C 68.1152 -2.00195 65.9668 0.244141 61.7676 0.244141 L 21.582 0.244141 C 17.3828 0.244141 15.1855 -2.00195 15.1855 -6.05469 Z"/>
  </g>
  <g id="Thin-S" transform="matrix(1 0 0 1 815.578 696)">
   <path d="M 9.76562 -5.22461 C 9.76562 1.75781 13.3789 5.32227 20.2637 5.32227 L 61.4258 5.32227 C 68.3594 5.32227 71.9238 1.75781 71.9238 -5.22461 L 71.9238 -65.1367 C 71.9238 -72.0703 68.3594 -75.6836 61.4258 -75.6836 L 20.2637 -75.6836 C 13.3789 -75.6836 9.76562 -72.0703 9.76562 -65.1367 Z M 13.0859 -5.32227 L 13.0859 -65.0391 C 13.0859 -69.873 15.5762 -72.4121 20.459 -72.4121 L 61.2793 -72.4121 C 66.1133 -72.4121 68.6035 -69.873 68.6035 -65.0391 L 68.6035 -5.32227 C 68.6035 -0.488281 66.1133 2.05078 61.2793 2.05078 L 20.459 2.05078 C 15.5762 2.05078 13.0859 -0.488281 13.0859 -5.32227 Z"/>
  </g>
  <g id="Ultralight-S" transform="matrix(1 0 0 1 519.281 696)">
   <path d="M 9.76562 -4.83398 C 9.76562 1.70898 13.2324 5.17578 19.7266 5.17578 L 61.084 5.17578 C 67.627 5.17578 71.0938 1.70898 71.0938 -4.83398 L 71.0938 -65.4785 C 71.0938 -72.0215 67.627 -75.4883 61.084 -75.4883 L 19.7266 -75.4883 C 13.2324 -75.4883 9.76562 -72.0215 9.76562 -65.4785 Z M 11.9629 -4.93164 L 11.9629 -65.3809 C 11.9629 -70.6055 14.6484 -73.291 19.873 -73.291 L 60.9863 -73.291 C 66.2109 -73.291 68.8965 -70.6055 68.8965 -65.3809 L 68.8965 -4.93164 C 68.8965 0.244141 66.2109 2.97852 60.9863 2.97852 L 19.873 2.97852 C 14.6484 2.97852 11.9629 0.244141 11.9629 -4.93164 Z"/>
  </g>
 </g>
</svg>
